<?xml version="1.0" encoding="UTF-8" standalone="no"?><!DOCTYPE svg PUBLIC "-//W3C//DTD SVG 1.1//EN" "http://www.w3.org/Graphics/SVG/1.1/DTD/svg11.dtd"><svg width="100%" height="100%" viewBox="0 0 352 510" version="1.1" xmlns="http://www.w3.org/2000/svg" xmlns:xlink="http://www.w3.org/1999/xlink" xml:space="preserve" style="fill-rule:evenodd;clip-rule:evenodd;stroke-linejoin:round;stroke-miterlimit:1.41421;"><rect id="Artboard1" x="0" y="0" width="352" height="510" style="fill:none;"/><g><path d="M96.229,135.399l61.163,164.72l-116.284,0c-5.985,0 -11.326,3.753 -13.356,9.386l-25.411,70.52c-1.331,3.689 1.405,7.583 5.326,7.583l183.377,0l42.26,109.945c1.854,4.819 6.484,8.001 11.648,8.001l95.421,0c4.814,0 8.103,-4.863 6.313,-9.33l-196.006,-489.554c-2.539,-6.344 -11.576,-6.186 -13.893,0.242l-40.632,112.775c-1.833,5.082 -1.805,10.648 0.074,15.712" style="fill:#f0f0ed;fill-rule:nonzero;"/></g></svg>