<?xml version="1.0" encoding="utf-8"?>
<!-- Generator: Adobe Illustrator 19.2.0, SVG Export Plug-In . SVG Version: 6.00 Build 0)  -->
<svg version="1.1" id="dashboard" xmlns="http://www.w3.org/2000/svg" xmlns:xlink="http://www.w3.org/1999/xlink" x="0px" y="0px"
	 viewBox="0 0 64 64" style="enable-background:new 0 0 64 64;" xml:space="preserve">
<style type="text/css">
	.st0{fill:#D51067;}
</style>
<g id="virtual_directories_1_">
	<path class="st0" d="M59.564,11.306c0-1.676-1.358-3.034-3.034-3.034H29.859V4.526c0-0.501-0.41-0.911-0.911-0.911H9.184
		c-0.501,0-0.911,0.41-0.911,0.911v3.746H7.477c-1.676,0-3.034,1.358-3.034,3.034v1.63h55.121V11.306z"/>
	<path class="st0" d="M61.086,15.564H2.914c-1.602,0-2.804,1.307-2.671,2.903l3.262,39.013c0.134,1.597,1.554,2.903,3.156,2.903
		h50.677c1.602,0,3.023-1.307,3.156-2.903l3.262-39.013C63.891,16.871,62.689,15.564,61.086,15.564z M20.104,28.643
		c0-0.761,0.622-1.383,1.383-1.383h0.435v-1.778c0-0.238,0.195-0.432,0.432-0.432h9.383c0.238,0,0.432,0.195,0.432,0.432v1.778
		h12.72c0.761,0,1.383,0.622,1.383,1.383v0.828h-26.17V28.643z M46.717,50.624c-0.063,0.758-0.737,1.378-1.498,1.378H21.155
		c-0.761,0-1.435-0.62-1.498-1.378l-1.547-18.528c-0.063-0.758,0.507-1.378,1.268-1.378h27.618c0.761,0,1.331,0.62,1.268,1.378
		L46.717,50.624z"/>
</g>
</svg>
