<?xml version="1.0" encoding="utf-8"?>
<!-- Generator: Adobe Illustrator 19.2.0, SVG Export Plug-In . SVG Version: 6.00 Build 0)  -->
<svg version="1.1" id="dashboard" xmlns="http://www.w3.org/2000/svg" xmlns:xlink="http://www.w3.org/1999/xlink" x="0px" y="0px"
	 viewBox="0 0 64 64" style="enable-background:new 0 0 64 64;" xml:space="preserve">
<style type="text/css">
	.st0{fill:#D51067;}
</style>
<path class="st0" d="M60.089,42.462l2.593-1.421C63.528,38.171,64,35.14,64,31.996c0-10.591-5.171-19.953-13.102-25.777l-1.833,2.72
	l-2.312-1.555l1.829-2.714C43.741,1.727,38.079,0,32,0C18.969,0,7.779,7.802,2.788,18.977l0.692,0.212l-0.812,2.664L1.77,21.578
	C0.642,24.848,0,28.344,0,31.996c0,10.248,4.835,19.348,12.326,25.205l-0.67-3.512l2.734-0.523l0.75,3.93l-2.354,0.45
	C18.141,61.58,24.78,64,32,64c1.12,0,2.226-0.06,3.316-0.172l0.508-0.655l0.624,0.482c11.193-1.561,20.532-8.883,24.894-18.902
	L60.089,42.462z M37.05,14.939l0.664,2.703l-4.121,1.016l-0.664-2.703L37.05,14.939z M28.808,16.97l0.672,2.703l-4.121,1.02
	l-0.672-2.703L28.808,16.97z M20.574,19.005l0.664,2.703l-4.121,1.016l-0.664-2.703L20.574,19.005z M11.597,10.822l0.172,3.996
	l-2.781,0.117l-0.172-3.996L11.597,10.822z M22.921,49.048l-3.938-0.711l0.492-2.742l3.938,0.711L22.921,49.048z M30.792,50.474
	l-3.938-0.711l0.492-2.742l3.938,0.711L30.792,50.474z M34.722,51.189l0.5-2.742l3.938,0.715l-0.5,2.742L34.722,51.189z
	 M40.48,61.716l-2.203-1.703l2.449-3.164l2.203,1.703L40.48,61.716z M46.781,55.762c-1.538,0-2.825-0.851-3.59-2.063l-0.012-0.01
	l0.003-0.004c-0.206-0.329-0.365-0.668-0.477-1.05l-0.112-0.021l0.051-0.282c-0.064-0.297-0.18-0.575-0.18-0.891
	c0-0.875,0.325-1.643,0.773-2.323L33.27,36.133c-0.431,0.144-0.872,0.273-1.352,0.273c-0.986,0-1.854-0.391-2.582-0.951
	l-13.705,9.059c0.089,0.344,0.212,0.677,0.212,1.048c0,2.387-1.934,4.324-4.32,4.324c-2.383,0-4.317-1.938-4.317-4.324
	c0-2.379,1.934-4.316,4.317-4.316c0.987,0,1.853,0.389,2.58,0.946l13.71-9.062c-0.088-0.344-0.212-0.676-0.212-1.048
	c0-0.116,0.057-0.214,0.066-0.328l-13.786-5.995c-0.449,0.491-0.994,0.873-1.626,1.115l0.096,2.655L9.57,29.63l-0.097-2.698
	c-1.763-0.543-3.07-2.125-3.07-4.069c0-2.379,1.934-4.316,4.316-4.316c2.387,0,4.32,1.938,4.32,4.316
	c0,0.118-0.058,0.217-0.067,0.333l13.788,5.996c0.79-0.863,1.899-1.426,3.158-1.426c0.377,0,0.714,0.124,1.063,0.215l7.079-10.619
	c-0.55-0.725-0.935-1.584-0.935-2.564c0-2.383,1.937-4.316,4.316-4.316c2.386,0,4.324,1.934,4.324,4.316
	c0,2.387-1.938,4.32-4.324,4.32c-0.377,0-0.716-0.124-1.065-0.215L35.3,29.517c0.552,0.725,0.938,1.586,0.938,2.565
	c0,0.878-0.326,1.649-0.776,2.331l9.5,12.377l2.728-0.246l0.07,0.779c1.899,0.454,3.34,2.083,3.34,4.119
	C51.102,53.828,49.168,55.762,46.781,55.762z M9.71,33.626l2.781-0.102l0.141,3.996l-2.781,0.102L9.71,33.626z M46.261,30.611
	l0.355,3.98l-2.773,0.25l-0.355-3.98L46.261,30.611z M43.128,26.876l-0.359-3.984l2.773-0.25l0.359,3.984L43.128,26.876z
	 M46.976,38.575l0.359,3.984l-2.773,0.25l-0.359-3.984L46.976,38.575z M54.414,48.751l-1.336-2.438l3.504-1.922l1.336,2.438
	L54.414,48.751z"/>
</svg>
