<?xml version="1.0" encoding="utf-8"?>
<!-- Generator: Adobe Illustrator 19.2.0, SVG Export Plug-In . SVG Version: 6.00 Build 0)  -->
<svg version="1.1" id="dashboard" xmlns="http://www.w3.org/2000/svg" xmlns:xlink="http://www.w3.org/1999/xlink" x="0px" y="0px"
	 viewBox="0 0 64 64" style="enable-background:new 0 0 64 64;" xml:space="preserve">
<style type="text/css">
	.st0{fill:#D51067;}
</style>
<g>
	<path class="st0" d="M32,57.593c-10.644,0-19.842-4.703-24.273-11.502c0,0.034-0.009,0.078-0.009,0.112
		C7.718,56.027,18.591,64,32,64c13.414,0,24.282-7.973,24.282-17.797c0-0.034-0.009-0.078-0.009-0.108
		C51.851,52.89,42.644,57.593,32,57.593z"/>
	<path class="st0" d="M32,48.373c-10.644,0-19.842-4.711-24.273-11.511c0,0.034-0.009,0.078-0.009,0.112
		C7.718,46.807,18.591,54.78,32,54.78c13.414,0,24.282-7.973,24.282-17.806c0-0.035-0.009-0.078-0.009-0.108
		C51.851,43.666,42.644,48.373,32,48.373z"/>
	<path class="st0" d="M32,0C18.591,0,7.718,7.969,7.718,17.801v8.827h0.078C7.766,27,7.718,27.371,7.718,27.755
		c0,9.828,10.872,17.797,24.282,17.797c13.414,0,24.282-7.973,24.282-17.797c0-0.38-0.047-0.751-0.078-1.126h0.078v-8.827
		C56.286,7.969,45.414,0,32,0z M32,32.936c-11.407,0-20.653-6.778-20.653-15.139c0-8.366,9.25-15.144,20.653-15.144
		s20.658,6.778,20.658,15.144C52.658,26.158,43.407,32.936,32,32.936z"/>
</g>
</svg>
