<?xml version="1.0" encoding="utf-8"?>
<!-- Generator: Adobe Illustrator 19.2.0, SVG Export Plug-In . SVG Version: 6.00 Build 0)  -->
<svg version="1.1" id="dashboard" xmlns="http://www.w3.org/2000/svg" xmlns:xlink="http://www.w3.org/1999/xlink" x="0px" y="0px"
	 viewBox="0 0 64 64" style="enable-background:new 0 0 64 64;" xml:space="preserve">
<style type="text/css">
	.st0{fill:#D51067;}
</style>
<path id="statistics_2_" class="st0" d="M39.305,0c9.49,1.094,18.19,6.953,22.436,16.282L36.047,27.969L39.305,0z M33.898,33.852
	l27.846,4.883c0.957-5.672,0.145-11.493-2.285-16.668L33.898,33.852z M29.812,35.837L33.07,7.879
	c-4.863-0.531-9.926,0.161-14.704,2.336c-7.304,3.324-12.504,9.377-14.941,16.403C1.139,33.207,1.283,40.651,4.4,47.501
	c2.714,5.964,7.248,10.524,12.646,13.323c7.412,3.844,16.452,4.367,24.641,0.642c8.83-4.02,14.584-12.032,16.1-20.922L29.96,35.872
	L29.812,35.837z"/>
</svg>
