<?xml version="1.0" encoding="utf-8"?>
<!-- Generator: Adobe Illustrator 18.1.1, SVG Export Plug-In . SVG Version: 6.00 Build 0)  -->
<svg version="1.1" id="Layer_1" xmlns="http://www.w3.org/2000/svg" xmlns:xlink="http://www.w3.org/1999/xlink" x="0px" y="0px"
	 viewBox="0 0 160 160" enable-background="new 0 0 160 160" xml:space="preserve">
<g id="Layer_2">
</g>
<g>
	<path fill="#373333" d="M160.001,79.994c0,44.184-35.812,80.01-79.994,80.01c-44.194,0-80.006-35.825-80.006-80.01
		C0.001,35.816,35.813,0,80.007,0C124.188,0,160.001,35.816,160.001,79.994z"/>
	<path fill="#D51067" d="M80.007,150.001c37.497,0,68.101-29.494,69.904-66.547c-0.995-0.101-2.004-0.157-3.029-0.157
		c-4.388,0-8.527,0.955-12.19,2.639c-3.613-7.005-11.62-11.879-20.925-11.879c-4.651,0-8.977,1.221-12.594,3.313
		c-5.5-12.731-20.43-21.865-37.998-21.865c-18.017,0-33.266,9.604-38.407,22.847c-3.222-0.867-6.682-1.344-10.288-1.344
		c-1.497,0-2.968,0.083-4.408,0.24c-0.035,0.912-0.069,1.825-0.069,2.746C10.003,118.655,41.338,150.001,80.007,150.001z"/>
	<g>
		<path fill="#CACACA" d="M118.25,39.422c0.102,0.083,0.587-2.638,0.68-2.546c-2.59-2.565-5.181-5.125-7.777-7.69
			c-0.645-0.637-1.295-1.28-1.943-1.916c-0.062-0.069-0.122-0.124-0.189-0.178c-0.024-0.022-0.051-0.038-0.075-0.059
			c-0.057-0.048-0.115-0.093-0.175-0.137c-0.016-0.011-0.031-0.027-0.048-0.038c-0.032-0.025-0.068-0.046-0.102-0.069
			c-0.049-0.033-0.096-0.068-0.146-0.099c-0.013-0.009-0.025-0.017-0.038-0.026c-0.09-0.049-0.18-0.1-0.277-0.153
			c-0.011-0.005-0.023-0.01-0.034-0.016c-0.018-0.009-0.036-0.016-0.054-0.025c-0.062-0.03-0.124-0.061-0.185-0.085
			c-0.034-0.012-0.067-0.023-0.1-0.036c-0.093-0.036-0.188-0.067-0.284-0.096c-0.061-0.02-0.12-0.042-0.183-0.057
			c-0.011-0.003-0.022-0.005-0.033-0.007c-0.038-0.009-0.076-0.017-0.114-0.026c-0.049-0.011-0.099-0.022-0.15-0.034
			c-0.051-0.008-0.105-0.014-0.159-0.022c-0.046-0.007-0.092-0.014-0.139-0.02c-0.006-0.001-0.012-0.002-0.017-0.002
			c-0.113-0.013-0.224-0.023-0.338-0.023c-0.078-0.003-0.157-0.001-0.235,0c-0.047,0.001-0.093-0.004-0.141,0
			c-0.065,0-0.131,0.004-0.201,0.012l-61.167,5.318c-0.082,0.004-0.16,0.017-0.239,0.028c-0.241,0.035-0.472,0.084-0.699,0.147
			l-0.001,0c-0.005,0.001-0.01,0.004-0.015,0.005c-0.253,0.077-0.496,0.177-0.735,0.291c-0.068,0.032-0.137,0.062-0.204,0.098
			c-0.017,0.009-0.034,0.015-0.051,0.024c-0.21,0.112-0.416,0.242-0.608,0.385c-0.008,0.006-0.016,0.013-0.024,0.019
			c-0.035,0.026-0.068,0.055-0.102,0.082c-0.078,0.061-0.157,0.121-0.23,0.185c-0.095,0.086-0.187,0.173-0.28,0.261
			c-0.03,0.033-0.059,0.066-0.089,0.098c-0.021,0.022-0.041,0.045-0.061,0.067c-0.024,0.027-0.049,0.053-0.073,0.081
			c-0.069,0.078-0.137,0.15-0.199,0.236c-0.062,0.077-0.113,0.154-0.17,0.238c-0.023,0.035-0.046,0.072-0.069,0.106
			c-0.016,0.025-0.032,0.049-0.048,0.073c-0.011,0.017-0.022,0.032-0.033,0.05c-0.049,0.076-0.094,0.151-0.133,0.232
			c-0.048,0.076-0.086,0.153-0.122,0.237c-0.041,0.073-0.076,0.153-0.108,0.237c-0.002,0.005-0.004,0.01-0.006,0.016
			c-0.007,0.018-0.014,0.035-0.021,0.053c-0.024,0.059-0.048,0.118-0.069,0.175c-0.035,0.095-0.063,0.177-0.087,0.265
			c-0.026,0.089-0.053,0.178-0.071,0.271c-0.011,0.038-0.016,0.079-0.025,0.118c-0.005,0.024-0.01,0.047-0.015,0.071
			c-0.007,0.035-0.016,0.068-0.022,0.103c-0.019,0.106-0.037,0.22-0.045,0.327c-0.017,0.128-0.022,0.257-0.026,0.376
			c0,0.035,0,0.071,0,0.107L39.9,51.82l3.258,3.22l-3.329,0.292l0.088,23.292l3.174,3.139l-3.177,0.28L39.88,97.876
			c0.003,0.121,0.006,0.248,0.016,0.36c0.007,0.091,0.031,0.175,0.044,0.264c0.018,0.132,0.035,0.262,0.064,0.389
			c0.034,0.147,0.081,0.287,0.129,0.427c0.038,0.112,0.072,0.226,0.119,0.333c0.067,0.152,0.149,0.292,0.232,0.433
			c0.049,0.084,0.09,0.172,0.145,0.252c0.147,0.213,0.31,0.413,0.494,0.593l9.719,9.616c-0.184-0.184,52.472-6.661,52.325-6.876
			l16.969-18.185l-9.719-9.619l9.635-17.097l-9.719-9.61l-14.697,1.284l0.094,23.301l3.169,3.135l-3.183,0.28l-0.003,3.381
			c0,0.165-0.018,0.327-0.05,0.485c-0.002,0.008-0.003,0.016-0.005,0.024c-0.065,0.312-0.188,0.607-0.356,0.873
			c-0.008,0.014-0.017,0.027-0.026,0.04c-0.085,0.129-0.178,0.252-0.283,0.366c-0.001,0.001-0.002,0.002-0.002,0.003
			c-0.109,0.117-0.227,0.225-0.354,0.322c-0.003,0.002-0.006,0.005-0.009,0.007c-0.125,0.095-0.259,0.178-0.398,0.25
			c-0.097,0.05-0.203,0.087-0.308,0.125c-0.21,0.077-0.428,0.138-0.657,0.157l-33.235,2.91l4.229-22.444l-9.723-9.611L118.25,39.422
			z"/>
		<g>
			<path fill="#FFFFFF" d="M120.135,85.481l-0.027,15.829c-0.005,2.565-2.097,4.836-4.683,5.064l-61.165,5.361
				c-2.574,0.225-4.666-1.682-4.656-4.251l0.026-15.829l14.71-1.292l-0.008,3.391c0,1.345,1.085,2.339,2.432,2.222l36.214-3.174
				c1.348-0.121,2.445-1.302,2.453-2.651l0.005-3.386L120.135,85.481z"/>
			<polygon fill="#FFFFFF" points="120.051,58.765 120.143,82.067 105.445,83.353 105.351,60.056 			"/>
			<polygon fill="#FFFFFF" points="64.256,63.653 64.345,86.956 49.642,88.242 49.548,64.941 			"/>
			<path fill="#FFFFFF" d="M54.346,41.008l61.169-5.329c2.579-0.208,4.662,1.686,4.658,4.263l-0.053,15.361l-14.693,1.275
				l0.005-2.918c0-1.345-1.085-2.338-2.429-2.221l-36.222,3.147c-1.343,0.12-2.446,1.305-2.446,2.646l-0.003,2.919l-14.71,1.282
				l0.043-15.365C49.672,43.496,51.771,41.236,54.346,41.008z"/>
		</g>
	</g>
	<path fill="#CACACA" d="M80.007,150.001c26.087,0,48.823-14.285,60.861-35.45c-1.297,0.484-2.531,1.075-3.683,1.767
		c-3.343-5.042-9.853-8.092-16.951-7.307c-3.546,0.392-6.738,1.692-9.319,3.592c-5.265-9.244-17.418-14.95-30.812-13.468
		c-13.734,1.519-24.55,10.127-27.352,20.655c-2.529-0.389-5.207-0.461-7.956-0.157c-4.502,0.498-8.605,1.928-12.009,3.999
		c-2.781-2.088-6.319-3.372-10.16-3.557C35.281,138.161,56.253,150.001,80.007,150.001z"/>
</g>
</svg>
