<?xml version="1.0" encoding="utf-8"?>
<!-- Generator: Adobe Illustrator 18.1.1, SVG Export Plug-In . SVG Version: 6.00 Build 0)  -->
<svg version="1.1" id="Layer_1" xmlns="http://www.w3.org/2000/svg" xmlns:xlink="http://www.w3.org/1999/xlink" x="0px" y="0px"
	 viewBox="0 0 160 160" enable-background="new 0 0 160 160" xml:space="preserve">
<path fill="#373333" d="M160,79.994c0,44.184-35.812,80.01-79.994,80.01C35.812,160.003,0,124.178,0,79.994
	C0,35.816,35.812,0,80.006,0C124.188,0,160,35.816,160,79.994z"/>
<g id="billing">
</g>
<g>
	<defs>
		<path id="SVGID_7_" d="M150,79.995c0,38.661-31.336,70.008-69.994,70.008C41.336,150.003,10,118.656,10,79.995
			C10,41.339,41.336,10,80.006,10C118.664,10,150,41.339,150,79.995z"/>
	</defs>
	<clipPath id="SVGID_2_">
		<use xlink:href="#SVGID_7_"  overflow="visible"/>
	</clipPath>
	<g id="vps" clip-path="url(#SVGID_2_)">
		<g>
			<g>
				<path fill="#CACACA" d="M123.607,98.492c0,2.735-2.238,4.973-4.973,4.973H41.366c-2.735,0-4.973-2.238-4.973-4.973V77.864
					c0-2.735,2.238-4.973,4.973-4.973h77.268c2.735,0,4.973,2.238,4.973,4.973V98.492z"/>
			</g>
			<rect x="41.102" y="89.908" fill="#373333" width="77.613" height="8.909"/>
			<rect x="43.555" y="92.007" fill="#FFFFFF" width="4.709" height="4.71"/>
			<rect x="89.04" y="92.007" fill="#FFFFFF" width="4.714" height="4.71"/>
			<rect x="96.577" y="92.007" fill="#FFFFFF" width="4.715" height="4.71"/>
			<rect x="104.114" y="92.007" fill="#FFFFFF" width="4.709" height="4.71"/>
			<rect x="111.652" y="92.007" fill="#FFFFFF" width="4.709" height="4.71"/>
		</g>
		<g>
			<g>
				<path fill="#CACACA" d="M123.607,128.659c0,2.735-2.238,4.973-4.973,4.973H41.366c-2.735,0-4.973-2.238-4.973-4.973v-20.622
					c0-2.735,2.238-4.973,4.973-4.973h77.268c2.735,0,4.973,2.238,4.973,4.973V128.659z"/>
			</g>
			<rect x="41.102" y="120.081" fill="#373333" width="77.613" height="8.909"/>
			<rect x="43.555" y="122.18" fill="#FFFFFF" width="4.709" height="4.71"/>
			<rect x="89.04" y="122.18" fill="#FFFFFF" width="4.714" height="4.71"/>
			<rect x="96.577" y="122.18" fill="#FFFFFF" width="4.715" height="4.71"/>
			<rect x="104.114" y="122.18" fill="#FFFFFF" width="4.709" height="4.71"/>
			<rect x="111.652" y="122.18" fill="#FFFFFF" width="4.709" height="4.71"/>
		</g>
		<g display="none">
			<g display="inline">
				<path fill="#CACACA" d="M123.607,158.451c0,2.735-2.238,4.973-4.973,4.973H41.366c-2.735,0-4.973-2.238-4.973-4.973v-20.623
					c0-2.735,2.238-4.973,4.973-4.973h77.268c2.735,0,4.973,2.238,4.973,4.973V158.451z"/>
			</g>
			<rect x="41.102" y="149.872" display="inline" fill="#373333" width="77.613" height="8.909"/>
			<rect x="43.555" y="151.966" display="inline" fill="#FFFFFF" width="4.709" height="4.715"/>
			<rect x="89.04" y="151.966" display="inline" fill="#FFFFFF" width="4.714" height="4.715"/>
			<rect x="96.577" y="151.966" display="inline" fill="#FFFFFF" width="4.715" height="4.715"/>
			<rect x="104.114" y="151.966" display="inline" fill="#FFFFFF" width="4.709" height="4.715"/>
			<rect x="111.652" y="151.966" display="inline" fill="#FFFFFF" width="4.709" height="4.715"/>
		</g>
	</g>
</g>
<g>
	<circle fill="#D51067" cx="80" cy="51.554" r="29.187"/>
	<polygon fill="#FFFFFF" points="75.017,39.988 79.854,53.016 70.322,53.016 67.941,59.622 82.395,59.622 85.818,68.527 
		94.429,68.527 78.799,29.49 	"/>
</g>
<g id="Layer_3">
</g>
</svg>
