<?xml version="1.0" encoding="utf-8"?>
<!-- Generator: Adobe Illustrator 19.2.0, SVG Export Plug-In . SVG Version: 6.00 Build 0)  -->
<svg version="1.1" id="dashboard" xmlns="http://www.w3.org/2000/svg" xmlns:xlink="http://www.w3.org/1999/xlink" x="0px" y="0px"
	 viewBox="0 0 64 64" style="enable-background:new 0 0 64 64;" xml:space="preserve">
<style type="text/css">
	.st0{fill:#D51067;}
</style>
<g>
	<path class="st0" d="M59.818,44.894H4.182C1.882,44.894,0,46.781,0,49.077v10.741C0,62.123,1.882,64,4.182,64h55.635
		c2.3,0,4.182-1.877,4.182-4.182V49.077C64,46.781,62.118,44.894,59.818,44.894z M15.543,59.818c0,0.461-0.38,0.846-0.836,0.846
		H4.182c-0.456,0-0.841-0.385-0.841-0.846V49.077c0-0.452,0.385-0.832,0.841-0.832h10.524c0.456,0,0.836,0.38,0.836,0.832V59.818z"
		/>
	<path class="st0" d="M59.818,22.452H4.182C1.882,22.452,0,24.339,0,26.634v10.741c0,2.305,1.882,4.183,4.182,4.183h55.635
		c2.3,0,4.182-1.877,4.182-4.183V26.634C64,24.339,62.118,22.452,59.818,22.452z M40.289,37.375c0,0.461-0.38,0.846-0.836,0.846
		H4.182c-0.456,0-0.841-0.385-0.841-0.846V26.634c0-0.452,0.385-0.832,0.841-0.832h35.27c0.456,0,0.836,0.38,0.836,0.832V37.375z"/>
	<path class="st0" d="M59.818,0H4.182C1.882,0,0,1.887,0,4.182v10.741c0,2.305,1.882,4.182,4.182,4.182h55.635
		c2.3,0,4.182-1.877,4.182-4.182V4.182C64,1.887,62.118,0,59.818,0z M26.908,14.923c0,0.461-0.38,0.846-0.836,0.846H4.182
		c-0.456,0-0.841-0.385-0.841-0.846V4.182c0-0.452,0.385-0.832,0.841-0.832h21.889c0.456,0,0.836,0.38,0.836,0.832V14.923z"/>
</g>
</svg>
