<?xml version="1.0" encoding="utf-8"?>
<!-- Generator: Adobe Illustrator 19.2.0, SVG Export Plug-In . SVG Version: 6.00 Build 0)  -->
<svg version="1.1" id="dashboard" xmlns="http://www.w3.org/2000/svg" xmlns:xlink="http://www.w3.org/1999/xlink" x="0px" y="0px"
	 viewBox="0 0 64 64" style="enable-background:new 0 0 64 64;" xml:space="preserve">
<style type="text/css">
	.st0{fill:#D51067;}
</style>
<g>
	<path class="st0" d="M60.769,5.502H3.231C1.454,5.502,0,6.956,0,8.733v34.523c0,1.777,1.454,3.231,3.231,3.231h17.032
		c-0.002,0.088-0.013,0.173-0.013,0.262c0,6.488,5.262,11.75,11.75,11.75s11.75-5.262,11.75-11.75c0-0.088-0.011-0.174-0.013-0.262
		h17.032c1.777,0,3.231-1.454,3.231-3.231V8.733C64,6.956,62.546,5.502,60.769,5.502z M12.468,33.346H9.077v-3.308h3.391V33.346z
		 M25.082,22.078h-3.735v-1.732c0-0.341-0.007-0.635-0.021-0.882c-0.014-0.246-0.05-0.528-0.109-0.845
		c-0.059-0.316-0.139-0.574-0.239-0.772c-0.102-0.198-0.251-0.366-0.449-0.506c-0.198-0.139-0.437-0.208-0.715-0.208
		c-1.099,0-1.648,0.925-1.648,2.774v8.107c0,1.843,0.55,2.765,1.648,2.765c0.327,0,0.602-0.094,0.824-0.282
		c0.223-0.188,0.383-0.453,0.48-0.798c0.097-0.344,0.163-0.682,0.198-1.012c0.034-0.33,0.052-0.708,0.052-1.132v-1.931h3.715v1.586
		c-0.015,0.717-0.073,1.377-0.178,1.982s-0.282,1.193-0.532,1.763c-0.25,0.571-0.568,1.053-0.954,1.445
		c-0.387,0.394-0.886,0.71-1.498,0.949c-0.611,0.24-1.314,0.36-2.107,0.36c-0.813,0-1.535-0.116-2.165-0.35
		c-0.629-0.233-1.147-0.546-1.554-0.939c-0.407-0.393-0.743-0.876-1.007-1.45c-0.265-0.573-0.451-1.177-0.559-1.81
		s-0.162-1.328-0.162-2.087v-6.218c0-4.438,1.815-6.657,5.446-6.657c0.766,0,1.445,0.104,2.04,0.309s1.094,0.488,1.497,0.85
		c0.403,0.362,0.735,0.808,0.996,1.336s0.449,1.103,0.563,1.722c0.115,0.619,0.173,1.301,0.173,2.045V22.078z M26.788,29.245
		c-0.115-0.633-0.173-1.325-0.173-2.076v-6.312c0-4.438,1.83-6.657,5.488-6.657c3.666,0,5.498,2.22,5.498,6.657v6.218
		c0,0.751-0.056,1.445-0.167,2.082c-0.111,0.636-0.301,1.239-0.568,1.81s-0.608,1.056-1.022,1.455
		c-0.414,0.4-0.938,0.715-1.57,0.944s-1.356,0.345-2.17,0.345c-0.807,0-1.526-0.113-2.159-0.339
		c-0.634-0.227-1.155-0.532-1.565-0.918c-0.41-0.387-0.75-0.859-1.018-1.419C27.094,30.475,26.902,29.879,26.788,29.245z
		 M31.133,54.322l-2.938-2.938l4.898-4.898l-4.898-4.902l2.938-2.938l7.836,7.84L31.133,54.322z M52.699,33.346h-2.796
		l-0.084-13.209c-0.209,1.356-0.573,3.559-1.096,6.604c-0.521,3.047-0.887,5.248-1.095,6.604h-2.838l-2.306-13.292l-0.084,13.292
		h-2.807v-18.78h4.549l2.003,12.521l2.16-12.521h4.393V33.346z"/>
	<path class="st0" d="M32.104,30.79c1.134,0,1.7-0.922,1.7-2.766v-8.117c0-1.85-0.566-2.774-1.7-2.774
		c-0.341,0-0.63,0.085-0.866,0.255c-0.236,0.171-0.41,0.403-0.521,0.699s-0.189,0.588-0.234,0.877
		c-0.046,0.288-0.068,0.604-0.068,0.943v8.117C30.413,29.868,30.977,30.79,32.104,30.79z"/>
</g>
</svg>
