<?xml version="1.0" encoding="utf-8"?>
<!-- Generator: Adobe Illustrator 19.2.0, SVG Export Plug-In . SVG Version: 6.00 Build 0)  -->
<svg version="1.1" id="dashboard" xmlns="http://www.w3.org/2000/svg" xmlns:xlink="http://www.w3.org/1999/xlink" x="0px" y="0px"
	 viewBox="0 0 64 64" style="enable-background:new 0 0 64 64;" xml:space="preserve">
<style type="text/css">
	.st0{fill:#D51067;}
</style>
<g>
	<circle class="st0" cx="22.622" cy="51.731" r="3.025"/>
	<circle class="st0" cx="13.136" cy="35.394" r="3.025"/>
	<circle class="st0" cx="41.377" cy="51.731" r="3.025"/>
	<circle class="st0" cx="50.864" cy="35.394" r="3.025"/>
	<path class="st0" d="M37.085,21.706c-0.295-0.497-0.731-0.939-1.302-1.319c-0.525-0.345-1.336-0.705-2.477-1.1
		c-2.392-0.826-2.578-1.363-2.581-1.363c0-0.108,0.029-0.228,0.23-0.368c0.248-0.168,0.631-0.253,1.137-0.253
		c0.989,0,1.946,0.229,2.845,0.683c0.168,0.084,0.361,0.098,0.538,0.039c0.177-0.059,0.323-0.186,0.407-0.353l0.863-1.73
		c0.167-0.334,0.042-0.741-0.283-0.925c-0.641-0.361-1.506-0.601-2.634-0.729l0.006-0.673c0.002-0.188-0.071-0.368-0.203-0.501
		c-0.132-0.133-0.312-0.208-0.499-0.208h-2.505c-0.388,0-0.702,0.314-0.702,0.703v0.832c-0.916,0.227-1.677,0.601-2.265,1.111
		c-0.786,0.671-1.184,1.476-1.184,2.39c0,0.592,0.147,1.146,0.445,1.653c0.291,0.481,0.695,0.893,1.209,1.228
		c0.487,0.312,1.332,0.678,2.583,1.122c1.372,0.484,1.964,0.838,2.213,1.044c0.256,0.217,0.386,0.424,0.386,0.613
		c0,0.383-0.929,0.52-1.798,0.52c-0.978,0-1.988-0.256-3.003-0.762c-0.33-0.163-0.732-0.045-0.92,0.275l-1.051,1.801
		c-0.101,0.171-0.123,0.378-0.062,0.567c0.06,0.189,0.197,0.345,0.379,0.427c0.934,0.424,1.963,0.697,3.067,0.815v0.991
		c0,0.388,0.314,0.703,0.702,0.703h2.505c0.388,0,0.702-0.314,0.702-0.703v-1.205c1.013-0.241,1.845-0.623,2.481-1.142
		c0.821-0.684,1.237-1.502,1.237-2.435C37.554,22.808,37.396,22.219,37.085,21.706z"/>
	<path class="st0" d="M32,0C14.327,0,0,14.327,0,32c0,17.673,14.327,32,32,32s32-14.327,32-32C64,14.327,49.673,0,32,0z
		 M50.864,40.819c-2.992,0-5.425-2.434-5.425-5.425c0-0.809,0.183-1.575,0.502-2.265l-5.467-4.195
		c-1.105,1.167-2.44,2.114-3.943,2.747l4.456,14.644c0.129-0.009,0.259-0.02,0.39-0.02c2.992,0,5.425,2.434,5.425,5.425
		c0,2.992-2.434,5.425-5.425,5.425s-5.425-2.434-5.425-5.425c0-2.014,1.105-3.771,2.738-4.707l-4.458-14.649
		c-0.723,0.14-1.468,0.219-2.232,0.219c-0.764,0-1.509-0.079-2.232-0.219l-4.459,14.649c1.633,0.936,2.738,2.693,2.738,4.707
		c0,2.992-2.434,5.425-5.425,5.425s-5.425-2.434-5.425-5.425c0-2.992,2.434-5.425,5.425-5.425c0.132,0,0.261,0.01,0.39,0.02
		l4.457-14.643c-1.503-0.634-2.839-1.58-3.943-2.747l-5.466,4.195c0.319,0.69,0.502,1.456,0.502,2.265
		c0,2.992-2.434,5.425-5.425,5.425s-5.425-2.434-5.425-5.425c0-2.992,2.434-5.425,5.425-5.425c1.316,0,2.524,0.472,3.464,1.254
		l5.465-4.193c-1.097-1.779-1.741-3.867-1.741-6.111c0-6.448,5.227-11.675,11.675-11.675c6.448,0,11.675,5.227,11.675,11.675
		c0,2.243-0.644,4.331-1.74,6.11l5.465,4.194c0.94-0.782,2.148-1.254,3.464-1.254c2.992,0,5.425,2.434,5.425,5.425
		C56.289,38.386,53.855,40.819,50.864,40.819z"/>
</g>
</svg>
