<?xml version="1.0" encoding="utf-8"?>
<!-- Generator: Adobe Illustrator 19.2.0, SVG Export Plug-In . SVG Version: 6.00 Build 0)  -->
<svg version="1.1" id="dashboard" xmlns="http://www.w3.org/2000/svg" xmlns:xlink="http://www.w3.org/1999/xlink" x="0px" y="0px"
	 viewBox="0 0 64 64" style="enable-background:new 0 0 64 64;" xml:space="preserve">
<style type="text/css">
	.st0{fill:#D51067;}
</style>
<path class="st0" d="M60.769,5.502H3.231C1.454,5.502,0,6.956,0,8.733v34.523c0,1.777,1.454,3.231,3.231,3.231h17.032
	c-0.002,0.088-0.013,0.173-0.013,0.262c0,6.488,5.262,11.75,11.75,11.75s11.75-5.262,11.75-11.75c0-0.088-0.011-0.174-0.013-0.262
	h17.032c1.777,0,3.231-1.454,3.231-3.231V8.733C64,6.956,62.546,5.502,60.769,5.502z M27.816,14.565l1.168,12.437l1.606-12.437
	h2.786l1.576,12.364l1.221-12.364h3.245l-2.629,18.78h-3.245l-1.575-12.29l-1.544,12.29H27.18l-2.598-18.78H27.816z M21.514,33.346
	H18.27l-1.575-12.29l-1.544,12.29h-3.245l-2.598-18.78h3.234l1.168,12.437l1.606-12.437h2.786l1.576,12.364l1.221-12.364h3.245
	L21.514,33.346z M39.066,53.124h-1.785c-0.386,0.54-1.016,0.893-1.731,0.893s-1.345-0.353-1.731-0.893h-8.886
	c-0.682,0-1.235-0.553-1.235-1.235s0.553-1.235,1.235-1.235h8.886c0.386-0.54,1.016-0.893,1.731-0.893s1.345,0.353,1.731,0.893
	h1.785c0.682,0,1.235,0.553,1.235,1.235S39.748,53.124,39.066,53.124z M39.066,47.983h-9.731c-0.386,0.54-1.016,0.893-1.731,0.893
	s-1.345-0.353-1.731-0.893h-0.94c-0.682,0-1.235-0.553-1.235-1.235s0.553-1.235,1.235-1.235h0.94
	c0.386-0.54,1.016-0.893,1.731-0.893s1.345,0.353,1.731,0.893h9.731c0.682,0,1.235,0.553,1.235,1.235S39.748,47.983,39.066,47.983z
	 M39.066,42.842h-5.335c-0.386,0.54-1.016,0.893-1.731,0.893s-1.345-0.353-1.731-0.893h-5.335c-0.682,0-1.235-0.553-1.235-1.235
	s0.553-1.235,1.235-1.235h5.335c0.386-0.54,1.016-0.893,1.731-0.893s1.345,0.353,1.731,0.893h5.335c0.682,0,1.235,0.553,1.235,1.235
	S39.748,42.842,39.066,42.842z M52.063,33.346h-3.245l-1.575-12.29l-1.544,12.29h-3.245l-2.598-18.78h3.234l1.168,12.437
	l1.606-12.437h2.786l1.576,12.364l1.221-12.364h3.245L52.063,33.346z"/>
</svg>
