<?xml version="1.0" encoding="utf-8"?>
<!-- Generator: Adobe Illustrator 18.1.1, SVG Export Plug-In . SVG Version: 6.00 Build 0)  -->
<svg version="1.1" id="Layer_1" xmlns="http://www.w3.org/2000/svg" xmlns:xlink="http://www.w3.org/1999/xlink" x="0px" y="0px"
	 viewBox="0 0 160 160" enable-background="new 0 0 160 160" xml:space="preserve">
<g id="billing">
</g>
<g id="Layer_3">
	<path fill="#373333" d="M160,79.994c0,44.184-35.812,80.01-79.994,80.01C35.812,160.003,0,124.178,0,79.994
		C0,35.816,35.812,0,80.006,0C124.188,0,160,35.816,160,79.994z"/>
	<path fill="#FFFFFF" d="M31.742,29.913l21.182-2.885l0.009,20.432L31.761,47.58L31.742,29.913z M52.913,49.814l0.016,20.449
		l-21.172-2.911l-0.001-17.676L52.913,49.814z M55.481,26.651l28.085-4.099V47.2l-28.085,0.223V26.651z M83.573,50.006
		l-0.007,24.537l-28.085-3.964L55.442,49.96L83.573,50.006z"/>
	<path fill="#D51067" d="M79.951,150.001c-37.497,0-68.101-29.494-69.904-66.547c0.995-0.101,2.004-0.157,3.029-0.157
		c4.388,0,8.527,0.955,12.19,2.639c3.613-7.005,11.62-11.879,20.925-11.879c4.651,0,8.977,1.221,12.594,3.313
		c5.5-12.731,20.43-21.865,37.998-21.865c18.017,0,33.266,9.604,38.407,22.847c3.222-0.867,6.682-1.344,10.288-1.344
		c1.497,0,2.968,0.083,4.408,0.24c0.035,0.912,0.069,1.825,0.069,2.746C149.954,118.655,118.619,150.001,79.951,150.001z"/>
	<g>
		<path fill="#FFFFFF" d="M94.756,105.276c5.718,3.609,9.891,8.783,11.484,14.771l0.231,0.868l0.888-0.137
			c1.44-0.222,2.922-0.334,4.401-0.334c1.091,0,2.199,0.062,3.293,0.183c4.202,0.465,8.213,1.799,11.599,3.859l0.578,0.352
			l0.542-0.406c0.709-0.533,1.618-1.098,2.664-1.627l-11.063-24.448l-3.741-19.487l-20.579,1.759l0.164,23.797L94.756,105.276z"/>
		<path fill="#373333" d="M94.558,97.242c-0.365,2.355-1.051,4.584-2.164,6.689c1.374,0.714,2.675,1.51,3.893,2.385
			c0.506-1.652,0.912-3.329,1.142-5.052c0.024-0.182,0.019-0.367,0.039-0.55c0.018-0.167,0.05-0.332,0.093-0.607
			c0.685,0.488,1.323,0.922,1.939,1.385c0.779,0.584,1.485,1.288,2.321,1.769c1.546,0.889,3.236,0.914,4.88,0.311
			c0.972-0.357,1.861-0.939,2.793-1.409c0.742-0.374,1.479-0.764,2.243-1.089c1.228-0.522,2.355-1.171,3.21-2.224
			c0.034-0.042,0.083-0.071,0.158-0.134c0.389,1.271,0.737,2.492,1.138,3.696c1.598,4.798,3.502,9.468,5.858,13.948
			c1.221,2.322,2.203,4.73,2.93,7.23c0.552,0.284,1.096,0.579,1.62,0.898l0.578,0.352l0.542-0.406
			c1.843-1.384,4.935-3.005,8.712-3.548c-0.335-0.939-0.715-1.867-1.143-2.782c-1.688-3.613-3.939-6.867-6.453-9.946
			c-1.71-2.095-3.431-4.18-4.782-6.537c-1.188-2.072-1.912-4.278-1.951-6.686c-0.046-2.857-0.049-5.717-0.158-8.572
			c-0.087-2.266-0.473-4.499-1.179-6.663c-0.699-2.143-1.741-4.084-3.419-5.634c-2.214-2.044-4.916-2.827-7.844-2.977
			c-1.773-0.091-3.538,0.046-5.275,0.421c-2.047,0.442-3.934,1.239-5.537,2.627c-1.996,1.729-3.096,3.973-3.689,6.493
			c-0.759,3.22-0.673,6.487-0.477,9.756C94.715,92.671,94.913,94.949,94.558,97.242z M108.451,84.391
			c1.625-1.119,3.572-0.908,4.953,0.573c1.382,1.482,1.813,3.29,1.65,5.259c-0.093,1.117-0.474,2.145-1.097,3.085
			c-0.164,0.247-0.318,0.3-0.593,0.179c-0.59-0.259-1.195-0.486-1.83-0.741c0.467-0.721,0.706-1.482,0.745-2.299
			c0.044-0.911-0.122-1.783-0.641-2.545c-0.776-1.142-2.141-1.052-2.868,0.164c-0.479,0.802-0.656,1.676-0.634,2.6
			c0.003,0.126,0.004,0.252,0.004,0.378c0,0.01-0.016,0.02-0.029,0.035c-0.567-0.2-1.138-0.396-1.703-0.609
			c-0.086-0.032-0.186-0.141-0.201-0.228C105.898,88.429,106.567,85.688,108.451,84.391z M97.078,86.264
			c0.578-1.226,1.567-1.803,2.691-1.66c0.897,0.114,1.503,0.693,1.982,1.399c0.858,1.267,1.136,2.691,1.041,4.198
			c-0.007,0.104-0.086,0.253-0.173,0.295c-0.504,0.245-1.021,0.464-1.587,0.716c0.039-0.889-0.055-1.71-0.477-2.463
			c-0.28-0.501-0.639-0.961-1.265-0.913c-0.633,0.049-0.928,0.568-1.086,1.113c-0.418,1.446-0.241,2.793,0.814,4.016
			c-0.335,0.249-0.667,0.497-1.04,0.775c-0.193-0.239-0.399-0.437-0.539-0.675C96.143,90.864,95.984,88.583,97.078,86.264z
			 M97.146,95.287c1.425-1.113,2.828-2.255,4.27-3.347c0.919-0.696,1.996-0.975,3.613-0.98c0.738-0.012,1.88,0.298,2.893,0.908
			c1.539,0.927,3.201,1.543,4.859,2.192c0.581,0.228,1.157,0.551,1.631,0.953c0.782,0.664,0.915,1.571,0.479,2.505
			c-0.562,1.202-1.538,1.998-2.712,2.513c-1.335,0.585-2.66,1.169-3.885,1.974c-0.537,0.353-1.139,0.642-1.75,0.842
			c-2.004,0.657-3.857,0.423-5.511-1.002c-0.843-0.727-1.754-1.377-2.653-2.036c-0.713-0.523-1.395-1.068-1.816-1.868
			C96.011,96.892,96.213,96.016,97.146,95.287z"/>
		<path fill="#373333" d="M97.264,96.224c0.248,0.162,0.465,0.276,0.649,0.43c0.728,0.606,1.416,1.261,2.171,1.829
			c2.124,1.598,4.445,1.81,6.841,0.736c1.35-0.605,2.624-1.377,3.933-2.073c0.561-0.298,1.118-0.606,1.691-0.879
			c0.218-0.104,0.476-0.126,0.715-0.184c0.162,0.648,0.144,0.627-0.369,0.857c-0.591,0.266-1.156,0.591-1.731,0.892
			c-1.414,0.739-2.781,1.59-4.25,2.195c-2.891,1.191-5.537,0.566-7.9-1.408c-0.51-0.426-0.977-0.904-1.498-1.315
			C97.172,97.032,97.102,96.734,97.264,96.224z"/>
	</g>
	<path fill="#CACACA" d="M79.951,150.001c-26.087,0-48.823-14.285-60.861-35.45c1.297,0.484,2.531,1.075,3.683,1.767
		c3.343-5.042,9.853-8.092,16.951-7.307c3.546,0.392,6.738,1.692,9.319,3.592c5.265-9.244,17.418-14.95,30.812-13.468
		c13.734,1.519,24.55,10.127,27.352,20.655c2.529-0.389,5.207-0.461,7.956-0.157c4.502,0.498,8.605,1.928,12.009,3.999
		c2.781-2.088,6.319-3.372,10.16-3.557C124.676,138.161,103.704,150.001,79.951,150.001z"/>
</g>
</svg>
