<?xml version="1.0" standalone="no"?>
<!DOCTYPE svg PUBLIC "-//W3C//DTD SVG 1.1//EN" "http://www.w3.org/Graphics/SVG/1.1/DTD/svg11.dtd" >
<svg xmlns="http://www.w3.org/2000/svg">
<metadata>Generated by IcoMoon</metadata>
<defs>
<font id="atomicoms" horiz-adv-x="1024">
<font-face units-per-em="1024" ascent="960" descent="-64" />
<missing-glyph horiz-adv-x="1024" />
<glyph unicode="&#x20;" d="" horiz-adv-x="512" />
<glyph unicode="&#xe600;" d="M249.808 396.096c-2.912 0-5.376 0.736-7.408 2.192s-3.328 3.296-3.904 5.536c-0.576 2.224-0.848 10.128-0.848 23.648v66.8h29.968v34.96h-29.968v58.528l-44.016-25.6v-32.928h-20.128v-34.96h20.128v-72.256c0-15.504 0.464-25.808 1.408-30.912 1.136-7.184 3.2-12.88 6.16-17.088s7.616-7.648 13.968-10.304c6.352-2.656 13.472-3.984 21.392-3.984 12.896 0 24.448 2.176 34.64 6.56l-3.744 34.016c-7.712-2.8-13.584-4.208-17.648-4.208zM354.080 532.976c-16.224 0-30.928-3.6-44.096-10.768s-23.328-17.584-30.512-31.2c-7.184-13.632-10.768-27.728-10.768-42.288 0-19.056 3.584-35.2 10.768-48.464 7.184-13.28 17.664-23.344 31.44-30.208 13.792-6.864 28.272-10.304 43.472-10.304 24.56 0 44.928 8.24 61.104 24.736s24.272 37.264 24.272 62.352c0 24.88-8.016 45.44-24.032 61.728-16.016 16.272-36.576 24.416-61.648 24.416zM383.040 408.576c-7.76-8.736-17.36-13.104-28.8-13.104s-21.072 4.368-28.88 13.104c-7.808 8.736-11.696 21.328-11.696 37.76 0 16.448 3.904 29.024 11.696 37.776 7.808 8.736 17.424 13.104 28.88 13.104 11.44 0 21.040-4.368 28.8-13.104 7.744-8.752 11.632-21.232 11.632-37.456-0.016-16.64-3.888-29.344-11.632-38.080zM672.016 525.552c-8.432 4.944-18.736 7.424-30.912 7.424-9.568 0-18.576-2.192-26.992-6.56-8.432-4.368-16.288-10.976-23.568-19.824-4.992 8.848-11.392 15.456-19.2 19.824s-17.008 6.56-27.616 6.56c-19.984 0-37.2-8.8-51.664-26.384v22.624h-40.416v-165.744h43.856v80.528c0 15.92 1.168 27.312 3.52 34.176 2.336 6.864 6.208 12.112 11.616 15.76 5.408 3.632 11.504 5.472 18.256 5.472 5.616 0 10.064-1.152 13.344-3.44s5.696-5.776 7.248-10.464c1.568-4.672 2.336-15.088 2.336-31.216v-90.832h43.856v79.584c0 15.6 1.2 27.024 3.584 34.256 2.4 7.232 6.304 12.72 11.696 16.464 5.408 3.744 11.184 5.632 17.328 5.632 8.432 0 14.672-3.12 18.72-9.376 3.008-4.784 4.528-15.408 4.528-31.84v-94.736h43.856v106c0 15.808-1.504 27.264-4.528 34.336-4.128 9.584-10.432 16.832-18.848 21.776zM719.936 551.696h43.856v40.576h-43.856v-40.576zM719.936 363.472h43.856v165.744h-43.856v-165.744zM923.632 417.936l0.464 51.2c0 19.040-1.952 32.112-5.856 39.248-3.904 7.12-10.64 13.008-20.208 17.632s-24.144 6.944-43.696 6.944c-21.536 0-37.776-3.856-48.688-11.552-10.928-7.712-18.624-19.568-23.088-35.584l39.792-7.184c2.704 7.712 6.24 13.088 10.608 16.16s10.464 4.608 18.256 4.608c11.552 0 19.408-1.792 23.568-5.392 4.16-3.584 6.24-9.6 6.24-18.016v-4.384c-7.904-3.328-22.112-6.912-42.608-10.768-15.184-2.912-26.816-6.32-34.88-10.224s-14.336-9.52-18.816-16.864c-4.48-7.344-6.704-15.696-6.704-25.056 0-14.16 4.912-25.856 14.752-35.12s23.28-13.888 40.336-13.888c9.68 0 18.784 1.824 27.312 5.456s16.544 9.104 24.032 16.384c0.304-0.832 0.832-2.544 1.568-5.152 1.664-5.728 3.072-10.048 4.208-12.96h43.392c-3.856 7.904-6.48 15.312-7.888 22.24-1.392 6.96-2.096 17.712-2.096 32.272zM881.024 434.336c0-10.496-0.576-17.632-1.712-21.376-1.664-5.712-5.152-10.56-10.464-14.512-7.184-5.216-14.72-7.808-22.64-7.808-7.072 0-12.896 2.224-17.472 6.704s-6.864 9.792-6.864 15.92c0 6.24 2.864 11.392 8.592 15.456 3.744 2.496 11.696 5.040 23.872 7.648s21.072 4.832 26.688 6.704v-8.736zM948.144 407.328v-43.856h43.856v43.856h-43.856zM73.296 530.032l28.24-76.032h-55.648l-13.888-38.56h84.352l19.984-51.968h50.256l-91.232 227.824-22.064-61.264z" />
<glyph unicode="&#xe601;" d="M32 928h960v-128h-960v128zM32 512h960v-128h-960v128zM32 96h960v-128h-960v128z" />
<glyph unicode="&#xe602;" d="M992 815.056l-112.944 112.944-367.056-367.056-367.056 367.056-112.944-112.944 367.056-367.056-367.056-367.056 112.944-112.944 367.056 367.056 367.056-367.056 112.944 112.944-367.056 367.056z" />
<glyph unicode="&#xe603;" d="M512.032 928c-265.152 0-480.032-214.896-480.032-479.952 0-265.104 214.88-480.064 480.032-480.064 265.088 0 479.968 214.96 479.968 480.064 0 265.056-214.88 479.952-479.968 479.952zM803.936 423.968c-62.48-253.632-482.288-361.328-675.376-97.856 73.952-70.656 202.8-76.88 284.48 7.568-47.92-6.976-82.8 40.048-23.92 65.376-52.912-5.696-82.352 22.432-94.432 46.352 12.368 12.976 26.096 18.976 52.576 20.768-57.936 13.648-79.344 42-85.872 76.432 16.048 3.84 36.144 7.136 47.136 5.68-50.736 26.576-68.368 66.48-65.584 96.528 90.672-33.712 148.496-60.784 196.8-86.688 17.216-9.248 36.448-25.776 58.080-46.8 27.568 72.992 61.68 148.176 120.032 185.536-0.976-8.448-5.472-16.32-11.472-22.768 16.496 15.024 38.016 25.44 59.968 28.4-2.544-16.432-26.176-25.664-40.528-31.008 10.88 3.36 68.32 28.992 74.592 14.32 7.456-16.576-39.6-24.208-47.584-27.088-6-2.048-12.032-4.224-17.856-6.624 72.832 7.264 142.32-52.816 162.608-127.424 1.392-5.424 2.88-11.344 4.16-17.584 26.624-9.92 74.88 0.496 90.368 10.064-11.136-26.608-40.432-46.24-83.52-49.808 20.816-8.608 59.888-13.408 86.896-8.832-17.072-18.272-44.64-34.912-91.552-34.544z" />
<glyph unicode="&#xe604;" d="M512.032 928c-265.152 0-480.032-214.896-480.032-479.968 0-265.152 214.88-480.032 480.032-480.032 265.088 0 479.968 214.88 479.968 480.032 0 265.072-214.88 479.968-479.968 479.968zM658.848 448.032h-94.304v-341.344h-141.232v341.344h-70.576v117.632h70.576v70.624c0 95.968 39.856 153.056 153.040 153.056h94.24v-117.696h-58.88c-44.096 0-46.992-16.432-46.992-47.104l-0.192-58.896h106.768l-12.448-117.616z" />
<glyph unicode="&#xe605;" d="M512 928c-265.088 0-480-214.912-480-480s214.912-480 480-480 480 214.912 480 480c0 265.088-214.912 480-480 480zM356.080 158.976h-129.488v416.368h129.488v-416.368zM291.344 632.24c-41.44 0-75.008 33.696-75.008 75.056 0 41.408 33.568 75.024 75.008 75.024 41.36 0 74.992-33.616 74.992-75.024 0.016-41.36-33.616-75.056-74.992-75.056zM840.72 158.976h-129.264v202.464c0 48.352-0.944 110.464-67.232 110.464-67.344 0-77.584-52.592-77.584-106.896v-206.016h-129.376v416.352h124.096v-56.832h1.76c17.328 32.704 59.552 67.216 122.512 67.216 130.912 0 155.104-86.208 155.104-198.32v-228.432z" />
<glyph unicode="&#xe606;" d="M512.032 928c-265.152 0-480.032-214.896-480.032-479.952 0-265.104 214.88-480.064 480.032-480.064 265.088 0 479.968 214.96 479.968 480.064 0 265.056-214.88 479.952-479.968 479.952zM494.496 36.032l-23.6 31.92-57.968-16.016 2.224 29.136 38.24 10.56-33.84 46.896 3.536 46.288 105.952-139.248-34.544-9.536zM728.96 82.144l-111.76-30.88-5.776 20.912 170.928 47.232c-16.656-13.728-34.528-26.096-53.392-37.264zM829.376 164.672l-226.256-62.512-5.776 20.912 255.584 70.624c-7.44-9.984-15.232-19.696-23.552-29.024zM589.072 153.072l-5.776 20.912 301.232 83.232-8.288 30-301.232-83.232-5.776 20.912 301.232 83.232-8.288 30-589.92-163.008 26.32-95.248c-23.040 13.36-44.848 28.784-65.072 46.256l-111.68 404.080 682.784 188.672 111.664-404.096c-9.408-28.448-21.872-55.728-36.944-81.504l-290.256-80.208zM179.792 492.928l74.992-271.408 594.224 164.192-74.992 271.408-594.224-164.192zM345.328 305.232l-64.288 102.544-0.448-0.128 30.88-111.776-34.080-9.424-44.816 162.208 43.856 12.112 60.48-96.752 0.448 0.128-29.136 105.408 35.44 9.792 44.816-162.208-43.152-11.904zM412.096 323.68l-44.816 162.208 93.824 25.92 8.544-30.896-55.664-15.376 8.976-32.496 52.256 14.432 8.544-30.896-52.256-14.432 10.24-37.024 58.16 16.064 8.544-30.896-96.352-26.608zM618.816 380.8l-48.4 110.608-0.464-0.128 16.144-119.52-42.256-11.68-73.44 154.304 38.16 10.544 45.984-111.52 0.448 0.128-15.088 120.064 35.44 9.792 50.064-110.384 0.464 0.128-18.256 119.184 36.8 10.176 16.656-170-42.256-11.696zM792.624 480.912c10.224-37.024-6.192-57.216-41.184-66.88-27.936-7.728-55.712-6.352-65.056 27.504l-2.896 10.448 36.8 10.176 1.568-5.68c3.392-12.272 9.152-20.704 22.544-16.992 13.408 3.712 14.496 14.768 11.92 24.080-9.664 34.976-74.016-3.824-90.784 56.832-7.152 25.904 0.688 51.536 39.984 62.4 38.176 10.544 57.2-5.216 64.048-29.984l1.072-3.856-36.8-10.176c-2.192 7.952-4.896 13.312-7.888 16.16-3.344 3.232-7.696 3.984-13.152 2.48-9.76-2.704-13.648-9.888-10.384-21.696 9.424-34.096 74.336 2.656 90.208-54.816z" />
<glyph unicode="&#xe607;" d="M662.592 616.336c0-68.828-86.699-124.624-193.648-124.624s-193.648 55.796-193.648 124.624c0 68.828 86.699 124.624 193.648 124.624s193.648-55.796 193.648-124.624zM710.816 490.352h45.344v-132.784h-45.344v132.784zM512.032 928c-265.152 0-480.032-214.896-480.032-479.952 0-265.104 214.88-480.064 480.032-480.064 265.088 0 479.968 214.96 479.968 480.064 0 265.056-214.88 479.952-479.968 479.952zM849.776 310.768c0-25.856-20.96-46.8-46.8-46.816h-92.224c-2.544-86.608-109.824-156.304-241.808-156.304-133.584 0-241.872 71.392-241.872 159.44v361.808c0 88.064 108.288 159.456 241.872 159.456s241.872-71.392 241.872-159.456v-44.912h92.16c25.856 0 46.8-20.96 46.8-46.816v-226.4z" />
<glyph unicode="&#xe608;" d="M890.768 165.504c-48.704-67.264-109.248-113.584-189.472-153.216-196.368-97.040-433.808-35.6-547.424 194.288-121.888 246.656-56 544.416 209.824 675.776 208.352 102.96 420.624 26.112 519.456-173.856 88.752-179.616 40.256-334.688-72.304-390.304-47.888-23.664-108.176-13.232-140.672 61.584l-4.784-2.368c-6.992-91.36-44.912-153.296-116.768-188.8-69.44-34.32-157.12-7.632-203.872 86.96-73.376 148.48-22.896 341.76 143.536 424.016 51.488 25.44 102.32 37.152 140.544 38.176l66.384-236.848c27.008-99.872 62.096-134.688 102.192-116.352 61.664 28.976 89.68 144.128 21.024 283.024-85.792 173.632-251.504 246.672-437.088 154.96-195.184-96.448-282.88-331.984-162.768-575.056 98.816-199.968 290.288-258.8 467.504-171.216 68.256 33.728 124.608 79.456 160.096 131.264l44.592-42.032zM569.28 650.24c-13.744-2.32-36.464-7.584-64.016-21.2-105.376-52.064-141.264-193.472-83.872-309.616 26.032-52.688 71.312-77.984 124-51.952 69.44 34.32 89.12 154.288 65.6 235.040l-41.712 147.728z" />
<glyph unicode="&#xe609;" d="M512.032 928c-265.152 0-480.032-214.896-480.032-479.984 0-265.136 214.88-480.016 480.032-480.016 265.088 0 479.968 214.88 479.968 480.016 0 265.088-214.88 479.984-479.968 479.984zM710.112 480.752c-1.84 21.76-9.424 46.784-22.784 75.056-24.016 50.8-56.896 83.248-98.656 97.312-41.76 14.080-88.992 8.656-141.728-16.256-40.384-19.088-71.552-44.080-93.488-74.976-21.92-30.912-33.344-65.776-34.256-104.56-0.912-38.8 8.56-79.232 28.448-121.328 25.632-54.208 60.528-88.88 104.752-104 44.208-15.136 93.936-9.648 149.216 16.48 24.656 11.648 50.032 26.88 76.112 45.712s50.528 39.616 73.328 62.352l34.512-73.024c-38.080-42.688-86.448-77.92-145.104-105.632-82.496-38.976-157.456-48.064-224.896-27.264-67.424 20.784-119.168 69.344-155.232 145.664-25.408 53.776-36.032 107.728-31.824 161.856s22.288 102.848 54.208 146.16c31.92 43.312 75.008 77.776 129.216 103.392 49.728 23.504 98.16 34.8 145.264 33.92 47.104-0.896 89.184-13.968 126.224-39.248 37.024-25.296 66.496-61.088 88.4-107.424 14.16-29.984 22.208-60.368 24.16-91.184s-2.736-57.856-14.096-81.168c-11.36-23.296-28.72-40.48-52.112-51.536-16.784-7.92-33.568-11.76-50.336-11.504-16.768 0.272-31.792 4.528-45.072 12.832l-4.768-2.256c-10.8-36.048-32.448-61.76-64.992-77.136-38.896-18.368-74.16-21.12-105.712-8.224-31.584 12.912-57.024 39.76-76.32 80.576-14.144 29.984-20.096 59.6-17.824 88.912 2.288 29.296 12.928 56.032 31.92 80.224 19.008 24.192 44.848 44.016 77.6 59.488 17.232 8.144 37.024 15.36 59.408 21.648s43.584 10.512 63.616 12.704l56.912-137.728 13.536-30.272c8.624-18.288 18.144-24.96 28.576-20.032 11.008 5.216 15.616 18.704 13.792 40.464zM531.104 533.088c-9.104-2.752-16.64-5.536-22.592-8.352-22.944-10.832-37.84-26.576-44.592-47.2s-4.112-43.68 7.952-69.2c10.048-21.248 21.184-34.832 33.488-40.736 12.272-5.92 24.784-5.84 37.536 0.192 16.384 7.744 25.28 20 26.704 36.8s-4.64 42.544-18.176 77.232l-20.32 51.264z" />
<glyph unicode="&#xe60a;" d="M512.032 928c-265.152 0-480.032-214.896-480.032-479.984 0-265.136 214.88-480.016 480.032-480.016 265.088 0 479.968 214.88 479.968 480.016 0 265.088-214.88 479.984-479.968 479.984zM675.776 135.952c-36.144-15.344-74.24-21.84-114.304-19.504-54.752 58.832-107.712 148.544-158.912 269.12-18.96 44.64-37.936 98.224-56.976 160.768-22.32 73.68-34.368 128.24-36.144 163.696 26.128 30.464 57.2 53.504 93.216 69.152 12.864 0.080 32.704-1.888 59.504-5.92l45.216-135.664-49.568-73.2c-5.168-28.368-4.656-54.496 1.552-78.384 2.816-11.712 12.304-36.544 28.416-74.496 18.048-42.528 38.048-69.344 59.984-80.464 9.728-5.184 42.688-12.352 98.88-21.456l66.384-127.2c-7.904-10.864-20.336-26.352-37.248-46.448z" />
<glyph unicode="&#xe60b;" d="M512.032 928c-265.152 0-480.032-214.896-480.032-479.984 0-265.136 214.88-480.016 480.032-480.016 265.088 0 479.968 214.88 479.968 480.016 0 265.088-214.88 479.984-479.968 479.984zM182.512 586.384l540.656 149.936c3.648 1.008 7.376 0.832 10.976-0.032l-216.528-308.56-344.512 152.96c2.656 2.608 5.744 4.672 9.408 5.696zM268.048 182.496l-101.904 367.456c-1.664 6.032-1.264 11.84 0.032 17.248l241.104-148.256-130.32-251.2c-3.888 3.952-7.232 8.72-8.912 14.752zM841.488 309.616l-540.656-149.936c-3.744-1.040-7.504-0.816-11.2 0.112l170.912 251.952 67.264-35.52c1.408-0.736 2.896-0.88 4.224-0.512s2.544 1.264 3.36 2.608l39.36 65.088 276.256-127.936c-2.656-2.688-5.776-4.816-9.52-5.856zM616.736 477.024l130.304 251.248c3.888-3.968 7.232-8.736 8.896-14.768l101.904-367.456c1.664-6.032 1.264-11.84-0.032-17.248l-241.072 148.224z" />
<glyph unicode="&#xe60c;" d="M512 928c-265.12 0-480-214.912-480-479.904 0-265.184 214.88-480.096 480-480.096 265.136 0 480 214.912 480 480.096 0 264.992-214.88 479.904-480 479.904zM707.040 173.296l-195.040 102.64-195.040-102.64 37.168 217.216-157.888 153.872 218.144 31.776 97.616 197.776 97.632-197.776 217.952-31.776-157.696-153.872 37.152-217.216z" />
<glyph unicode="&#xe60d;" d="M405.104 370.56c-74.608 0.848-137.776-47.072-137.776-102.672 0-56.672 53.872-103.888 128.432-103.888 104.864 0 141.392 44.304 141.392 101.056 0 6.848-0.848 13.536-2.384 20-8.224 32.064-40.832 49.68-81.36 77.824-14.704 4.752-30.928 7.52-48.304 7.68zM384.064 732.784c-50.032 1.456-83.632-48.832-74.944-114.512 8.608-65.744 56.176-111.664 106.24-113.2 50.032-1.456 78.784 40.832 70.176 106.592-8.608 65.664-51.44 119.568-101.472 121.12zM512 928c-265.072 0-480-214.928-480-480 0-265.136 214.928-480 480-480 265.104 0 480 214.864 480 480 0 265.072-214.896 480-480 480zM560.144 614.416c0-41.072-22.72-74.128-54.832-99.2-31.376-24.528-37.296-34.752-37.296-55.6 0-17.76 37.456-44.224 54.672-57.136 59.952-44.992 72.096-73.296 72.096-129.504 0-70.208-75.632-139.968-198.608-139.968-107.888 0-198.944 43.84-198.944 114.048 0 71.216 75.52 145.504 183.424 145.504 11.76 0 22.528 0.304 33.68 0.304-14.768 14.304-26.688 26.688-26.688 48.368 0 12.912 4.080 25.216 9.84 36.224-5.84-0.384-11.84-0.768-18-0.768-88.64 0-140.24 62.288-140.24 140.352 0 76.448 78.56 145.968 172.768 145.968 48.56 0 185.68 0 185.68 0l-41.488-43.6h-48.752c34.416-19.696 52.688-60.24 52.688-104.992zM826.768 625.872h-85.68v-85.6h-42.832v85.6h-85.632v42.832h85.632v85.664h42.832v-85.664h85.68v-42.832z" />
<glyph unicode="&#xe60e;" d="M512 928c-265.104 0-480-214.896-480-480s214.896-480 480-480c265.104 0 480 214.896 480 480s-214.896 480-480 480zM620.032 132.112l-60.112 156.384h-253.84l41.808 116h167.408l-84.96 228.816 66.416 184.352 274.48-685.552h-151.2z" />
<glyph unicode="&#xe60f;" d="M512.032 928c-265.152 0-480.032-214.896-480.032-479.984 0-265.136 214.88-480.016 480.032-480.016 265.088 0 479.968 214.88 479.968 480.016 0 265.088-214.88 479.984-479.968 479.984zM778.672 195.568h-533.344v301.92h533.328v-301.92zM778.672 542.448h-533.344v133.232c0 13.68 11.088 24.768 24.768 24.768h217.152c13.68 0 24.768-11.088 24.768-24.768v-39.84h241.904c13.68 0 24.752-11.088 24.752-24.752v-68.64z" />
<glyph unicode="&#xe610;" d="M512.032 928c-265.152 0-480.032-214.896-480.032-479.984 0-265.136 214.88-480.016 480.032-480.016 265.088 0 479.968 214.88 479.968 480.016 0 265.088-214.88 479.984-479.968 479.984zM778.672 199.264h-533.344v425.28h74.128v78.112c0 14.336 11.616 25.952 25.952 25.952h16.416c14.336 0 25.952-11.616 25.952-25.952v-78.112h248.448v78.112c0 14.336 11.616 25.952 25.952 25.952h16.416c14.336 0 25.952-11.616 25.952-25.952v-78.112h74.128v-425.28zM422.352 517.936c-62.064 0-82.192-51.808-82.192-117.056 0-65.232 20.128-117.696 82.192-117.696s82.528 52.464 82.528 117.696c0 65.248-20.48 117.056-82.528 117.056zM422.352 320.928c-31.008 0-39.968 35.184-39.968 79.952 0 44.144 8.96 78.992 39.968 78.992s39.968-34.864 39.968-78.992c0-44.768-8.96-79.952-39.968-79.952zM607.952 435.744c-13.744 0-24.304-5.12-24.304-5.12h-0.656c0 0 1.28 4.464 1.616 10.544l3.52 37.424h70.368c8.928 0 13.408 4.48 13.408 13.104v8.96c0 8.64-4.48 13.424-13.408 13.424h-93.408c-8.304 0-13.104-4.464-13.744-12.784l-8.304-90.512c-0.656-8 2.544-13.12 9.92-15.984l2.864-0.96c6.096-2.24 11.504-1.6 17.92 0.64 5.44 2.24 14.72 5.76 26.224 5.76 25.92 0 45.424-15.664 45.424-39.328 0-23.984-20.464-38.704-42.528-38.704-17.6 0-30.384 8.304-37.76 14.080-7.344 5.12-13.408 4.784-18.224-2.56l-6.384-9.6c-4.784-6.4-4.48-13.424 1.904-18.224 10.88-8.96 32-22.704 63.648-22.704 47.024 0 81.872 33.264 81.872 78.032-0.032 40.928-29.76 74.512-79.968 74.512z" />
<glyph unicode="&#xe611;" d="M370.496 448c0-33.234-26.942-60.176-60.176-60.176s-60.176 26.942-60.176 60.176c0 33.234 26.942 60.176 60.176 60.176s60.176-26.942 60.176-60.176zM512.032 928c-265.152 0-480.032-214.896-480.032-479.984 0-265.136 214.88-480.016 480.032-480.016 265.088 0 479.968 214.88 479.968 480.016 0 265.088-214.88 479.984-479.968 479.984zM811.648 301.136c0-24.72-20.048-44.768-44.768-44.768h-366.928c-26.736 0-52.512 10-72.272 28.016l-132.592 120.976c-25.088 22.896-25.088 62.4 0 85.296l132.592 120.976c19.76 18.032 45.536 28.016 72.272 28.016h366.928c24.72 0 44.768-20.048 44.768-44.768v-293.744z" />
<glyph unicode="&#xe612;" d="M512.032 928c-265.152 0-480.032-214.896-480.032-479.984 0-265.136 214.88-480.016 480.032-480.016 265.088 0 479.968 214.88 479.968 480.016 0 265.088-214.88 479.984-479.968 479.984zM834.464 169.104c-78.288-90.4-193.744-147.76-322.432-147.76-128.704 0-244.208 57.376-322.512 147.792v74.992c-0.896 136.112 226.16 359.152 226.16 562.592h64.192v-403.808c-37.376-13.248-64.192-48.8-64.192-90.72 0-53.2 43.12-96.32 96.32-96.32s96.32 43.12 96.32 96.32c0 41.904-26.816 77.472-64.192 90.72v403.808h64.192c0-203.44 222.592-426.464 226.144-562.608v-75.008z" />
<glyph unicode="&#xe613;" d="M337.92 448.992l-269.6-269.504c-48.432-48.384-48.432-126.848 0-175.28 48.336-48.256 126.8-48.32 175.168 0l219.792 219.888c-7.44 31.84-7.264 65.504 1.552 98l-126.912 126.896zM157.296 36.048c-30.688 0-55.536 24.88-55.536 55.472 0 30.608 24.864 55.408 55.536 55.408 30.56 0 55.44-24.8 55.44-55.408 0-30.592-24.88-55.472-55.44-55.472zM607.552 464.688c17.12 4.496 34.8 6.96 52.528 6.96 15.472 0 30.464-2.288 45.184-5.664l0.368 0.448c76.048-17.456 158.96 2.736 218.224 62.048 66.4 66.352 83.984 162.4 54 245.28l-120.624-120.656c-38.608-38.608-101.392-38.608-140.048 0-38.736 38.736-38.624 101.456 0 140.064l120.56 120.656c-82.784 30.016-178.8 12.432-245.296-53.984-59.184-59.184-79.456-142.272-62-218.256l-49.936-49.936 127.040-126.96zM725.056 379.392c-39.2 39.136-97.744 45.968-144.432 21.872l-306.56 306.624c1.568 8.336 1.44 17.776-0.992 26.304l-7.36 25.776c-4.528 15.76-19.296 36.016-33.056 45.056l-122.608 80.16c-13.68 9.056-31.6 9.712-39.712 1.504-8.24-8.192-21.584-21.616-29.856-29.76-8.096-8.128-7.44-26.032 1.616-39.776l80.176-122.544c9.024-13.68 29.184-28.656 44.992-33.072l25.84-7.296c9.648-2.8 20.608-2.4 29.568-0.128l305.408-305.44c-24.176-46.56-17.232-105.216 21.904-144.352l200-200.096c24.16-24.112 55.856-36.224 87.584-36.224 31.648 0 63.44 12.112 87.616 36.208 48.352 48.384 48.352 126.912 0 175.152l-200.128 200.032z" />
<glyph unicode="&#xe614;" d="M750.304 495.872l7.072-38.272c2.528-13.744 16.032-25.776 30.032-26.656l25.424-1.584c14-0.912 28.912 9.344 33.152 22.672l11.808 37.104c4.24 13.344 18.512 20.432 31.712 15.744l36.624-13.024c13.232-4.704 30.384 0.992 38.128 12.656l14.096 21.248c7.744 11.696 6.384 29.744-3.088 40.080l-26.24 28.72c-9.44 10.4-8.448 26.288 2.288 35.392l29.568 25.216c10.672 9.088 14.304 26.768 8.080 39.344l-11.328 22.832c-6.256 12.608-22.576 20.4-36.224 17.392l-37.968-8.336c-13.696-3.008-26.96 5.776-29.552 19.552l-7.008 38.24c-2.528 13.744-16.064 25.744-30.064 26.624l-25.424 1.616c-14 0.88-28.896-9.376-33.152-22.688l-11.76-37.056c-4.272-13.312-18.544-20.448-31.744-15.76l-36.64 13.056c-13.2 4.672-30.4-1.040-38.128-12.688l-14.096-21.248c-7.728-11.696-6.384-29.744 3.088-40.080l26.192-28.672c9.44-10.368 8.432-26.256-2.224-35.376l-29.616-25.248c-10.672-9.12-14.304-26.8-8.080-39.344l11.36-22.864c6.192-12.576 22.544-20.368 36.24-17.392l37.984 8.336c13.664 3.072 26.944-5.76 29.488-19.536zM815.312 671.776c28.064-1.76 49.44-25.984 47.68-54.048-1.776-28.080-26-49.456-54.064-47.68-28.080 1.76-49.44 26-47.68 54.048 1.76 28.112 25.984 49.44 54.064 47.68zM337.84 425.728c0 20.080 16.304 36.4 36.4 36.4s36.416-16.32 36.416-36.4-16.32-36.4-36.416-36.4c-20.096 0-36.4 16.32-36.4 36.4zM374.24 520.416c-52.288 0-94.656-42.384-94.656-94.672s42.384-94.672 94.656-94.672c52.288 0 94.656 42.384 94.656 94.672 0.016 52.288-42.368 94.672-94.656 94.672zM129.008 356.096c5.52-19.632 13.392-38.272 23.296-55.584l-43.696-47.792c-12.528-12.56-12.528-32.784 0-45.296l47.344-47.344c12.528-12.528 32.768-12.528 45.28 0l47.776 43.712c17.328-9.92 35.984-17.792 55.632-23.312l4.096-64.96c0-17.76 14.256-32.048 32.032-32.048h66.992c17.76 0 32.048 14.272 32.048 32.048l4.064 64.96c19.664 5.52 38.32 13.392 55.632 23.312l47.776-43.712c12.528-12.528 32.768-12.528 45.28 0l47.344 47.344c12.528 12.528 12.528 32.752 0 45.296l-43.68 47.792c9.888 17.312 17.76 35.952 23.296 55.584l64.96 4.112c17.76 0 32.048 14.272 32.048 32.016v66.992c0 17.792-14.272 32.048-32.048 32.048l-64.96 4.080c-5.52 19.696-13.408 38.336-23.296 55.664l43.68 47.76c12.528 12.528 12.528 32.752 0 45.264l-47.344 47.344c-12.512 12.528-32.768 12.528-45.28 0l-47.776-43.68c-17.328 9.888-35.968 17.76-55.632 23.312l-4.064 64.928c0 17.76-14.272 32.064-32.048 32.064h-66.992c-17.76 0-32.032-14.304-32.032-32.064l-4.096-64.928c-19.648-5.552-38.304-13.424-55.632-23.312l-47.776 43.68c-12.528 12.528-32.768 12.528-45.28 0l-47.344-47.344c-12.528-12.528-12.528-32.752 0-45.264l43.696-47.76c-9.904-17.36-17.776-36-23.296-55.664l-64.96-4.080c-17.776 0-32.048-14.256-32.048-32.048v-66.992c0-17.728 14.272-32.016 32.048-32.016l64.96-4.112zM374.24 578.656c84.464 0 152.912-68.448 152.912-152.928s-68.448-152.928-152.912-152.928c-84.464 0-152.928 68.448-152.928 152.928s68.464 152.928 152.928 152.928z" />
<glyph unicode="&#xe615;" d="M250.656 848h-178.992c-21.904 0-39.664-17.76-39.664-39.712v-539.632h1.84l128.096-221.744 128.048 221.744h0.4v539.632c-0.016 21.952-17.776 39.712-39.728 39.712zM243.248 270.544l-0.72-1.296c-0.368-1.040-0.896-2.144-1.84-3.136l-75.968-131.632-75.968 131.632c-0.944 0.992-1.472 2.096-1.84 3.136l-0.72 1.296h0.24c-0.016 0.24-0.24 0.448-0.24 0.688 0 11.744 35.136 21.248 78.528 21.248 43.344 0 78.528-9.504 78.528-21.248 0-0.256-0.224-0.448-0.24-0.688h0.24zM258.72 671.536h-194.576v50.96h194.576v-50.96zM987.184 90.8l-565.216 750.24c-9.584 12.688-17.392 10.096-17.392-5.824v-738.592c0-15.872 12.992-28.864 28.88-28.864h542.224c15.904 0 21.088 10.352 11.504 23.040zM421.344 713.488h46.624v-17.616h-46.624v17.616zM421.344 522.496h46.624v-17.616h-46.624v17.616zM421.344 426.96h46.624v-17.616h-46.624v17.616zM467.984 122.8h-46.624v17.616h46.624v-17.616zM467.984 218.352h-46.624v17.616h46.624v-17.616zM480.368 313.84h-59.024v17.616h59.024v-17.616zM480.368 600.384h-59.024v17.616h59.024v-17.616zM720.208 195.152h-159.344c-15.904 0-28.88 12.992-28.88 28.864v230.4c0 15.92 7.808 18.512 17.392 5.824l182.336-242.048c9.568-12.688 4.4-23.040-11.504-23.040z" />
<glyph unicode="&#xe616;" d="M522.64 658.448c4.512 0 6.688 1.728 7.728 3.216 1.36 1.856 1.424 4.272 0.24 6.56-2.288 4.448-9.344 8.544-14.848 8.544-4.080 0-7.168-2.112-8.416-5.696-0.8-2.16-0.496-4.448 0.928-6.432 2.8-4.032 9.472-6.192 14.368-6.192zM580.768 551.344c-2.912 1.616-5.696 3.52-8.352 5.44-4.080 2.912-8.352 5.936-12.992 7.424-0.304 0.128-0.56 0.24-0.864 0.304 2.544 1.664 4.768 4.080 4.384 6.992-0.192 1.056-1.056 4.448-6.496 4.448-6.624 0-14.16-2.048-15.392-7.792-0.256-1.296-2.544-3.904-4.208-4.704-0.56-0.24-1.168-0.688-1.856-1.104-0.736-0.432-2.224-1.296-3.216-1.792-1.92 3.584-8.096 14.352-12.992 15.28-0.864 0.176-1.728 0.304-2.656 0.304-2.912 0-8.464-1.056-12.496-7.856-5.312-8.848-8.416-11.632-9.776-12.56-2.848-1.92-8.16-7.856-7.488-12.736 0.24-1.792 1.232-3.28 2.72-4.144 0.064-1.424-0.496-4.512-1.36-6.992l-0.496-1.616 0.752-1.424c0.864-1.728 2.544-2.72 4.448-2.72 1.856 0 3.648 0.928 5.632 2.048 1.552 0.8 3.712 1.984 4.944 1.984 0.864 0 1.984-0.064 3.216-0.192 1.664-0.064 3.648-0.176 5.504-0.176 3.952 0 9.584 0.432 12.304 4.336 0.8 1.12 4.144 2.288 9.584 2.288 2.032 0 4.144-0.192 6.128-0.432 3.408-0.56 6.624-2.096 9.776-3.648 3.216-1.552 6.24-2.976 9.408-3.344 5.504-0.624 19.792 0.56 24.928 1.856 3.088 0.736 5.248 3.28 5.696 6.56 0.608 5.12-2.976 10.88-8.784 13.968zM515.776 239.472c1.056-2.544 2.976-4.208 5.312-4.768l1.424-0.128c6.176 0 11.072 7.984 12.432 10.384 1.856 3.408 4.576 9.776 1.856 14.096-1.728 2.784-5.504 3.344-8.416 3.344-1.488 0-8.96-0.176-11.504-4.512-1.856-3.088-3.52-12.784-1.104-18.416zM669.824 574.96c-2.544 5.008-13.104 7.552-17.136 7.552-1.488 0-2.592-0.24-3.584-0.864-0.56-0.368-1.36-0.992-2.416-1.728-2.16-1.552-5.248-3.776-8.48-5.696-0.368-0.304-3.952-0.192-6.736 0.432-4.448 0.928-8.096 1.12-10.512-0.496-5.072-3.408-8.288-7.728-9.088-12.176-0.56-3.024 0-6 1.728-8.416l1.856-2.656c6.992-10.144 11.248-15.52 15.216-16.64 0.624-0.192 1.552-0.368 2.592-0.624 1.6-0.432 5.248-1.296 7.424-2.224l-0.8-0.688c-4.576-4.272-4.752-3.84-7.104-3.712l-0.736 0.064c-2.72 0-5.808-1.792-6.496-6.752-0.688-4.704 1.12-14.352 6.864-15.952 1.168-0.368 2.976-0.928 5.136-1.552 5.504-1.728 12.304-3.904 15.52-4.384 0.624-0.064 1.488-0.128 2.416-0.128 0.128 0 13.36 0.128 17.44 4.88 1.12 1.296 1.552 2.848 1.168 5.008-1.984 11.312-4.384 18.080-7.664 21.536 0.192 0.176 0.432 0.368 0.56 0.56 1.664 1.488 3.648 3.28 3.712 6 0.064 1.488-0.496 2.912-1.616 4.016-2.032 1.984-4.384 2.72-6.128 3.216s-2.224 0.688-2.592 1.296c-0.56 0.864-1.056 1.728-1.552 2.592-1.488 2.592-3.152 5.504-6.496 7.728-1.104 0.736-2.416 1.232-3.776 1.36 0.736 2.064 3.088 3.488 5.008 3.488 0.064 0 0.128 0 0.128 0 2.096-2.112 5.376-3.152 9.776-3.152 3.888 0 9.088 0.992 11.504 2.784l1.856 1.792 0.176 1.728c0.304 2.96-1.92 5.44-4.384 8.288-1.056 1.168-2.352 2.656-2.784 3.52zM512 928c-265.104 0-480-214.88-480-480 0-265.040 214.896-480 480-480s480 214.96 480 480c0 265.12-214.896 480-480 480zM657.072 749.040c4.016 1.728 14.96 6.928 23.008 10.32 8.032 3.456 10.336 10.384 16.080 10.384s33.328 5.744 36.8 4.576c3.456-1.168 20.096-2.288 23.552 2.288 3.456 4.64 15.52 1.728 12.672-2.288-2.912-4.016-13.232-13.232-20.16-11.504-6.864 1.728-26.464 1.168-35.056 0-8.592-1.12-16.704-6.304-24.112-10.336-7.488-4.016-5.76-8.656-2.912-9.216 2.912-0.56 5.744-6.304 2.288-9.776-4.208-4.272-13.168-2.848-19.536 0.56-6.304 3.456-13.792 4.016-17.2 5.2-3.456 1.136 0.56 8.064 4.576 9.792zM257.776 644.72c0.432 0 1.104-0.24 1.792-0.432 2.912-0.8 7.168-0.752 9.648 2.16 3.84 4.64 4.88 4.144 6.304 3.28 2.16-1.36 3.952-2.096 5.696-2.72 2.048-0.8 3.408-1.296 5.2-3.088 0.24-0.24 0.128-0.992-0.624-2.96-0.752-2.224-2.416-6.8 1.728-9.584 0.928-0.624 2.784-3.024 4.336-4.944 3.152-4.016 6.736-8.592 10.64-10.272 4.448-2.048 8.896-7.488 9.216-9.52-0.176-1.792-5.136-5.936-7.552-5.936-1.92 0-5.248 0.688-8.464 1.36-3.776 0.736-7.296 1.488-9.952 1.488-1.12 0-2.096-0.192-2.96-0.432l-4.448 1.424c-2.48 0.8-5.2 1.984-6.56 2.912 1.92 2.416 7.168 6.736 11.136 8.784 3.152 1.552 3.28 3.952 3.216 4.944-0.304 3.952-4.704 5.312-11.312 7.296-1.984 0.624-3.888 1.232-5.44 1.792-3.776 1.552-6.992 5.808-9.088 8.592l-1.296 1.728c-1.28 1.472-1.712 3.568-1.216 4.128zM239.168 618.432c-0.24 0.672-0.56 1.488-1.168 1.984 0.192 0.128 1.104 0.496 2.912 0.496 3.456 0 5.44 2.416 6.736 4.016 1.168 1.424 1.856 2.16 3.088 2.416 2.48 0.368 5.248-0.128 6.304-1.296 1.104-1.056 2.352-4.080 2.352-9.216 0-2.592-3.84-5.2-7.488-6.736-0.928-0.368-1.984-0.928-3.024-1.424-2.72-1.36-5.744-2.912-8.096-2.912l-0.56 0.064c-1.056 0.128-2.288 1.424-2.784 2.352 4.448 3.024 2.592 8.032 1.728 10.256zM640.384 135.696c-1.728-3.456-4.576-16.704-8.032-23.008s-4.016-13.792-7.488-21.28c-3.408-7.488-6.304-10.32-14.352-10.32-8.032 0-10.944 4.016-9.776 10.32 1.12 6.368-6.304 17.808-2.288 21.824s4.576 12.672 0.56 21.328c-4.016 8.592 8.592 13.168 10.944 12.624 2.288-0.56 8.592 4.576 14.352 10.88 5.744 6.368 6.56 15.888 13.792 13.856 4.016-1.168 6.304-9.216 6.928-15.584 0.544-6.224-2.912-17.168-4.64-20.64zM846.736 296.048c-6.864 2.352-3.712 21.952 0 23.568 5.2 2.352 6.368-8.592 8.656-11.504 2.288-2.848-1.728-14.352-8.656-12.064zM921.072 412.064c-3.152 0-5.744-2.224-8.096-4.576l-0.8-0.752c-1.488-1.552-1.488-1.552-12.496-1.552-11.376 0-15.216-5.376-18.24-9.712-1.296-1.856-2.544-3.584-4.336-4.88-3.024-2.288-5.744-5.264-8.416-8.16-3.648-3.952-7.36-7.968-11.376-9.712-6-2.592-13.92-6.864-13.92-14.592 0-3.776 0-13.792-1.616-18.992-0.432-1.488-0.8-3.088-1.232-4.832-1.168-4.64-2.528-9.824-5.136-13.6-1.36-1.984-2.72-4.336-3.952-6.624-1.056-1.856-2.48-4.384-3.216-5.744-0.56 1.664-1.12 4.768-1.12 8.416 0 4.64-4.144 10.944-9.584 18.736-1.296 1.856-2.416 3.456-3.024 4.448-2.16 3.904-10.64 21.28-10.64 21.28-3.152 8.656-6.368 19.728-6.128 22.32 0.624 5.312 0.624 19.424 0.624 20.032v9.584l-6.8-6.8c-3.712-3.776-8.528-7.36-9.776-7.552-1.488 0.24-4.576 4.272-4.080 10.208 0.672 9.52-7.856 11.008-11.504 11.68-0.8 0.128-1.6 0.24-2.288 0.432-0.992 0.432-3.408 3.408-4.64 5.008-2.912 3.712-5.248 6.624-8.528 6.624-3.152 0-6.736 0-10.016-4.944-0.128-0.176-1.92-1.36-10.512-1.36h-3.584c-4.448 0-19.968 0.736-24.064 2.16-1.92 0.624-5.072 4.384-7.104 6.928-2.544 3.088-4.384 5.312-6.496 6.128l-2.224 0.432c-2.48 0-5.072-1.424-8.096-3.024-1.616-0.864-4.336-2.352-4.88-2.416-1.12 0.368-3.648 1.984-6.064 3.52-3.152 2.096-7.12 4.704-11.248 6.608-4.64 2.112-6.8 6.736-8.96 11.136-0.688 1.424-1.296 2.72-1.92 3.84-1.296 2.352-3.584 3.712-6.24 3.712-3.84 0-7.424-2.72-9.584-5.312-2.528-3.088-3.648-6.624-3.024-9.712 0.864-4.208 4.944-7.984 8.848-11.696 1.792-1.664 4.512-4.272 4.88-4.752 0-5.312 2.976-7.728 7.488-11.312l2.592-2.096c2.032-1.664 2.032-2.352 1.984-3.456 0-1.232-0.128-5.072 4.64-6.496 4.080-1.12 8.592 1.616 13.104 4.576 1.728 1.12 3.456 2.288 5.2 3.216 2.72 1.296 4.384 2.912 5.696 4.512 1.056-2.352 2.912-5.568 7.040-6.064 3.648-0.496 14.592-6.864 16.88-10.704-0.064-0.496-1.488-2.032-2.224-2.912-1.104-1.168-2.288-2.48-3.28-4.080-3.952-6.992-9.712-15.584-13.92-18.992l-2.912-2.416c-4.88-4.016-9.84-8.16-16.144-9.456-5.008-0.992-7.984-2.912-10.336-4.384-2.032-1.36-3.408-2.224-5.808-2.416-8.352-0.688-28.384-10.816-30.544-12.128-1.616-0.992-12.304-4.336-18.128-4.336-0.992 0-1.36 0.064-1.36 0.064-2.16 1.232-4.080 11.248-5.008 16.080l-0.624 2.848c-1.856 9.216-4.384 14.352-6.064 17.744-2.288 4.448-13.6 14.288-15.392 15.52-1.664 1.856-6.688 13.792-7.232 18.672-0.432 4.944-3.84 6.736-5.808 7.792-1.664 0.864-2.048 1.056-2.224 2.288-0.8 4.384-3.456 9.152-5.76 13.36-1.296 2.352-2.592 4.768-2.96 6.064-0.368 1.36-1.92 4.448-7.168 4.448-2.912 0-6.56-0.928-9.776-1.728l-7.168-1.792 4.080-6.672c0.624-0.992 1.232-1.92 1.792-3.024 1.792-3.28 3.584-7.168 5.376-11.136 2.352-5.072 4.704-10.272 7.296-14.832 1.856-3.216 3.456-7.296 5.008-11.2 2.288-5.808 4.512-11.248 7.6-14.784 3.344-3.712 6.864-10.080 10.768-19.536 2.912-6.992 10.512-15.584 14.096-16.448 2.288-1.488 9.712-11.808 10.384-14.224 0-0.368-0.128-1.36-0.176-2.032-0.304-2.544-0.8-6.432 1.664-9.408 1.728-2.048 4.32-3.216 7.92-3.408 8.48-0.432 16.208 2.848 20.096 4.64 0.672 0.304 1.296 0.56 1.792 0.8 4.016 1.6 16.816 6.24 23.376 6.736-0.192-2.912-2.224-8.896-3.216-11.744-0.992-2.896-1.792-5.248-1.984-6.672-0.496-1.488-4.384-6.992-7.296-11.008-6.928-9.648-10.208-14.592-10.64-18.064-0.304-2.96-8.224-11.136-13.36-12.064-5.744-1.056-13.536-8.912-24.304-21.216l-2.112-2.48c-1.6-1.792-3.52-4.336-5.568-6.928-2.544-3.344-6.864-8.96-8.352-9.776-2.288-0.8-4.016-2.976-5.072-6.496-1.056-3.28-2.352-11.568 0.128-14.784 0.256-0.624 0.432-2.784 0.624-4.384 0.624-5.632 1.424-13.296 5.872-17.248 5.248-4.64 4.448-5.936 3.776-7.168-1.856-3.28-1.36-7.664-0.8-12.304 0.368-3.344 0.8-6.8 0.304-9.776-0.928-6.496-6.864-15.52-8.528-17.248-0.624-0.496-3.344-1.616-5.248-2.48-5.76-2.48-12.864-5.568-16.384-9.952-5.44-6.8-10.080-12.672-8.032-17.68 1.664-4.384 5.136-16.272 5.072-18.128-1.12-1.792-8.592-5.376-11.44-6.672l-2.656-1.296c-6.8-3.408-4.88-10.080-3.712-14.032l0.496-1.792c-0.064-2.096-6.176-7.856-8.48-10.016-0.992-0.928-1.856-1.728-2.544-2.48-1.232-1.232-3.088-3.28-5.248-5.76-4.944-5.632-11.744-13.424-16.64-16.816-1.728-1.232-3.408-1.856-5.072-2.784-19.488 1.168-38.72 3.28-57.392 7.040-0.688 3.408-1.488 5.936-1.488 5.936s0 0 0-0.064c-0.304 1.424-2.288 11.312-8.224 16.64-2.848 2.528-4.512 5.312-6.128 7.968-1.056 1.792-2.048 3.408-3.216 4.832-0.928 1.104-0.8 4.816-0.736 7.856 0.064 2.416 0.128 4.88-0.064 7.168-0.624 6.736-4.208 17.248-7.6 22.080-2.096 2.848-6 9.952-8.528 14.656l-2.224 3.952c-1.104 1.984-4.704 9.344-4.016 21.392 0.432 10.016 7.728 15.392 11.632 18.368 6.8 5.072 2.656 11.744-0.624 17.136l-1.792 2.912c-1.488 2.592-1.296 6.864-1.12 10.704 0.256 4.704 0.496 9.216-2.224 12.368-0.928 1.056-2.912 4.208-5.008 7.552-6.864 10.88-12.496 19.424-17.376 22.080-2.048 1.104-3.216 1.92-3.408 2.16-0.064 0.432 0.176 1.664 1.792 5.44 1.664 4.016 1.92 7.856 2.16 11.2 0.24 4.336 0.56 6.8 2.592 8.656 3.216 2.912 4.704 5.936 4.336 9.024-0.496 4.448-4.64 7.296-8.592 9.456-1.664 0.928-2.592 1.664-3.28 2.224-0.992 0.752-2.224 1.728-4.080 1.728-2.096 0-3.456-1.056-6.128-3.152-4.768-3.648-9.84-3.712-10.88-2.656-0.992 1.056-1.616 2.48-2.352 4.336-1.36 3.456-3.152 7.728-8.72 11.2-2.48 1.488-5.2 2.288-8.224 2.288-5.632 0-10.816-2.528-13.92-4.080-0.624-0.304-1.168-0.56-1.616-0.736-0.736-0.304-1.856-0.864-3.152-1.616-3.776-1.92-9.408-4.816-14.896-5.632-4.576-0.688-8.352-0.24-12.368 0.064-2.784 0.304-5.632 0.56-8.848 0.56-7.104 0-17.808 0-19.92-7.424-0.128-0.56-0.304-0.992-0.368-1.296-0.368 0.24-0.8 0.496-1.424 0.992-5.008 3.888-15.216 12.992-15.456 13.168-5.248 4.208-14.288 12.496-16.080 16.816-3.28 7.92-9.152 13.168-20.96 18.8-4.768 2.224-4.576 3.456-3.84 7.040 0.368 1.984 0.8 4.272 0.304 6.736-0.56 2.72-1.792 4.768-3.152 6.56 0.8 0.992 1.296 2.096 1.856 3.28 0.928 1.92 2.224 4.64 5.072 8.224 6.8 8.544 3.952 17.808 2.48 22.752l-0.56 1.984c-0.304 1.232-0.928 2.592-1.552 4.080-2.032 4.704-3.088 7.856-0.368 11.44 3.088 3.952 5.936 9.776 8.72 15.408 2.416 4.88 5.2 10.512 7.104 12.432 4.016 4.016 14.896 10.080 21.216 12.992 6 2.72 6.24 8.16 6.432 12.608 0.128 2.72 0.24 5.568 1.36 8.48 2.656 6.624 6.368 9.84 6.736 10.144 2.16 0 4.080 1.424 7.92 4.272 2.544 1.92 5.76 4.208 8.912 6 0.432 0.256 1.664 0.688 4.448 0.688 2.16 0 4.512-0.24 6.624-0.432 4.080-0.496 6.672-0.56 8.224 0.24 0.992 0.432 3.216 1.232 5.808 2.16 3.584 1.296 7.856 2.784 10.816 4.080 5.248 2.352 20.336 7.488 22.512 7.728l1.616-0.064c2.16 0 5.872-0.064 10.208-0.064 21.152 0 23.616 1.104 24.8 1.6 1.056 0.432 3.216 1.232 5.504 1.232 2.416 0 5.936-0.736 8.224-7.040 0.752-2.048 1.12-3.408 1.36-4.336-1.12-0.128-2.544-0.368-4.016-1.104-2.96-1.488-4.336-4.208-3.648-7.168 0.928-4.080 5.936-7.664 8.72-7.664h0.064c0.624-0.24 2.528-1.552 3.84-2.416 3.776-2.544 7.664-5.2 11.2-5.2 2.096 0 7.968-1.984 11.808-3.52 2.544-1.92 11.136-7.984 16.944-7.984 1.056 0 2.224-0.24 3.408-0.56 4.208-1.056 9.888-0.992 14.352 3.456 2.528 2.592 10.32 10.384 15.28 10.384 0.064 0 0.064 0 0.064 0 1.856-0.304 4.016-1.232 6.304-2.16 4.080-1.728 8.72-3.648 14.032-3.648 1.616 0 3.456 0.064 5.44 0.128 4.448 0.064 9.52 0.128 12-0.064-1.36-1.12-2.976-2.352-4.144-3.216-5.808-4.448-9.648-7.36-7.6-11.312 1.104-2.16 2.96-3.408 5.136-3.408 3.024 0 5.872 2.096 10.64 7.792 3.584 4.336 8.784 5.312 14.288 6.304 1.664 0.304 3.344 0.624 5.376 1.12 1.232 0 2.592-1.984 3.088-2.784l1.92-2.976 3.152 1.488c1.232 0.56 3.088 0.624 5.376 0.624 5.312 0 6.992 2.288 8.544 5.136 0.672 1.296 1.488 2.72 3.408 4.64 5.136 5.136 8.224 14.288 9.216 27.152 0.128 2.096 0.128 5.072-1.728 7.104-0.8 0.864-2.16 1.856-4.448 1.856-1.664 0-3.344-0.56-4.944-1.104-0.736-0.24-1.552-0.56-2.72-0.864-3.344-0.8-8.96-2.224-11.504-2.224l-1.104 0.304c-6.176 1.664-14.096 2.544-15.216 0.864 0 0-0.432-0.128-1.552-0.128-3.088 0-6.368 1.056-7.056 1.664-1.664 1.984-4.64 3.456-9.456 5.632-1.616 0.736-3.952 1.856-5.008 2.544-0.192 1.168-0.24 3.408-0.304 5.136-0.176 7.008-0.432 11.76-2.288 14.544-1.296 2.032-3.408 3.152-5.744 3.152-3.648 0-7.104-2.544-10.448-5.136-0.688-0.56-2.48-1.296-3.84-1.92-3.344-1.424-6.176-2.656-6.56-5.76l0.128-2.976 1.856-1.36c0.496-0.368 1.232-0.8 2.048-1.296 5.008-3.152 5.632-4.336 5.568-4.752-0.128-1.184-1.296-1.92-3.712-3.28-1.232-0.672-2.48-1.424-3.408-2.16-1.984-1.616-3.952-2.656-5.072-3.024-0.752 1.424-1.856 3.648-3.024 6.064-2.912 5.936-4.704 9.648-5.872 11.136l-1.424 1.792c-1.984 2.544-5.44 6.816-6.624 10.336-1.488 4.576-5.248 7.056-8.592 9.216-1.6 1.056-3.216 2.096-4.384 3.28-2.224 2.224-6 4.768-10.080 7.488-3.888 2.592-7.92 5.312-10.016 7.424-3.28 3.216-8.48 6.496-12.864 6.496-3.888 0-6.736-2.592-7.104-6.56-0.624-5.696 3.84-8.656 7.104-10.752 1.984-1.36 3.904-2.656 4.944-4.336 4.384-7.296 13.664-11.248 16.688-12.56 1.232-0.496 3.28-1.664 5.504-3.088-0.8-0.304-1.488-0.8-2.096-1.488-1.12-1.296-1.424-2.912-1.36-4.64-1.664 2.912-3.648 5.44-5.504 6.864-1.664 1.232-5.504 2.656-14.032 5.632-2.912 0.992-5.376 1.792-6.176 2.16-2.976 1.552-10.448 7.104-11.072 10.016-1.232 5.632-7.36 8.16-12.864 8.16-1.36 0-3.344-0.192-4.816-0.928-0.688-0.304-1.856-1.056-3.344-1.92-2.16-1.424-7.968-5.072-9.824-5.072-1.664 0-4.32 0.8-6.992 1.552-2.592 0.8-5.248 1.552-8.416 1.92-6.176 0-7.968-6.736-9.088-11.2-0.368-1.232-0.672-2.48-0.928-3.344-0.368-0.24-1.856-0.368-2.848-0.432-2.848-0.24-6.672-0.56-9.648-3.52-0.992-0.992-2.16-1.984-3.408-3.024-4.080-3.408-9.216-7.744-6.496-13.056 0.192-0.432 0.432-0.864 0.736-1.232-2.48-1.424-4.336-3.216-6.064-4.816-2.224-2.16-3.712-3.52-5.44-3.712-1.616-0.192-3.344-0.496-5.136-0.864-3.152-0.688-7.12-0.864-7.296-0.8 0 0 0 0 0-0.064l-1.792 0.864h-1.104c-3.456 0-5.44-2.912-7.056-5.744 0 0.064 0 0.064-0.064 0.128-1.12 1.664-2.288 3.456-3.584 4.768-1.792 1.792-4.384 2.656-7.984 2.656-1.424 0-2.912-0.128-4.208-0.24-0.864-0.064-1.6-0.192-1.856-0.368-0.496 0.304-1.552 1.728-2.224 2.656-1.168 1.616-2.48 3.456-4.208 4.832-0.24 0.176-0.368 0.688-0.432 1.168-0.064 0.864 0.256 1.616 0.432 1.792 4.576 3.52 6.064 8.544 4.144 14.176-1.792 5.44-1.488 13.168 0.688 14.032 0.8 0.304 2.592 0.752 6.368 0.752 3.28 0 6.992-0.304 10.384-0.56 5.68-0.496 9.52-0.432 14.464-0.864 2.592-0.176 5.312-0.368 7.664-0.368 3.712 0 8.224 0.432 10.208 3.952 3.216 5.872 4.576 12.432 3.84 18.432-0.688 6.432-9.024 10.512-15.824 12.672 1.792 0.56 3.024 1.232 4.144 1.856 1.424 0.8 2.544 1.424 5.008 1.856 2.96 0.496 5.872 1.056 8.72 1.616 3.712 0.752 7.168 1.488 10.080 1.792 7.616 0.8 8.544 7.424 8.592 11.2 1.92 0.8 6.56 1.664 10.768 2.032l1.36 0.128 0.992 0.928c0.064 0.064 8.032 7.296 12.368 10.576 2.784 2.16 9.152 2.224 15.584 0.56 1.12-0.304 2.048-0.432 2.848-0.432l3.344 0.304 1.056 2.352c1.36 3.152-1.056 5.696-4.080 8.848-0.736 0.736-1.488 1.488-1.92 2.048-0.624 0.864-0.128 4.944 1.488 8.352 0.8 0.864 5.072 2.288 8.784 2.352-0.064-0.432-0.128-0.864-0.192-1.232-0.304-1.856-0.688-4.208-0.432-6.624 0.8-6.24 6.304-9.952 6.992-10.336l1.168-0.736 6.496 0.736h6.56c2.224 0 2.656-0.432 3.408-1.104 1.36-1.12 4.080-3.088 8.592-1.664 2.032 0.624 12.24 3.776 15.584 5.44 0.064 0 2.224 2.096 14.224-1.92 4.944-1.664 7.728-0.24 8.896 1.056 2.048 2.16 1.856 5.072 1.728 7.6-0.064 1.232-0.176 2.784 0.128 3.456 3.216 8.592 5.696 9.584 6.736 9.584 1.664-0.176 3.28-0.688 4.768-1.104 4.080-1.184 8.912-1.856 12.736 0.496 2.592 1.664 2.848 3.952 2.784 4.88-0.064 2.032-1.232 3.584-2.896 4.944 1.296 0.064 2.656 0.128 3.888 0.192l6.432 0.304c3.648 0.176 6.736 0.24 9.456 0.304 4.512 0.064 8.096 0.128 11.376 0.992 2.976 0.736 4.704 3.216 4.336 6.176-0.496 4.016-6.496 10.816-10.448 10.816-0.496 0-1.664-0.128-3.28-0.192-4.080-0.304-11.248-0.8-15.344-0.432-4.576 0.496-9.152-1.296-13.104-2.848-1.92-0.736-3.712-1.488-5.312-1.92-0.672 0.368-1.792 2.72-2.416 4.016-0.8 1.728-1.664 3.584-2.912 5.072-0.8 0.928-1.552 2.48-1.232 3.952 0.304 1.488 1.92 2.528 3.28 3.152 4.016 1.856 21.152 10.576 24.608 15.76 1.104 1.664 1.296 3.584 0.368 5.248-1.616 3.024-5.632 3.584-12.064 3.584-3.52 0-7.728-0.176-11.936-0.368-3.024-0.192-5.936-0.496-7.552-2.656-1.488-1.984-0.928-4.144-0.688-5.248 0.368-1.552 0.8-3.28-3.024-7.056-4.704-4.752-7.792-5.072-11.312-5.44-3.52-0.432-7.424-0.8-12-4.704-2.976-2.592-5.936-5.696-5.136-9.392 0.864-4.016 5.072-5.264 9.52-6.56l2.224-0.624c0.368-0.128 0.624-0.24 0.736-0.24-0.24-0.8-1.168-2.352-2.912-4.080-0.24-0.24-0.624-0.56-1.104-0.992-4.016-3.456-10.768-9.216-9.152-15.456 0.128-0.496-1.664-2.096-2.784-2.656-5.872-1.232-21.824-4.64-24.928-5.504 0 0.064-0.128 0.688 0.176 1.552 1.184 3.408-0.624 7.424-2.48 11.616-1.056 2.352-2.288 5.072-2.48 6.736-0.432 3.648-3.088 5.312-5.568 5.312-4.448 0-10.384-5.568-11.808-9.888-1.552-0.624-8.912-1.056-12.8 0.368-3.52 1.296-5.872 5.872-6.176 7.664 0.992 2.544-0.256 5.808-1.92 10.208-0.368 0.928-0.864 2.224-1.168 3.024 2.544 2.592 11.744 8.848 20.224 10.64 9.584 2.048 20.464 11.072 28.448 17.632 1.984 1.664 3.84 3.152 5.376 4.384 5.136 3.952 8.544 8.48 10.816 11.44 0.864 1.104 1.92 2.528 2.048 2.72 3.456 1.728 40.624 11.504 54.848 13.792 2.224 0.368 5.072 0.56 8.416 0.56 15.712 0 37.728-3.776 41.312-4.576 2.848-0.624 4.88-1.424 9.024-3.024 2.656-1.056 6.176-2.48 11.136-4.272 10.080-3.648 18.992-4.512 26.224-5.248 2.16-0.192 4.272-0.432 6.176-0.688 5.248-0.736 9.152-1.984 12.928-3.584-2.352-0.8-5.248-1.728-7.856-2.528-9.712-3.088-17.376-3.344-25.664-0.56-2.48 0.8-5.936 1.792-8.288 1.792-3.584 0-4.64-2.48-4.88-3.216-1.056-3.52 2.48-5.808 3.952-6.8 2.16-1.424 2.16-1.424 2.16-3.712 0-1.104 0-2.288 0.128-3.776 0.368-3.584 2.976-5.936 6.624-5.936 4.448 0 9.648 3.52 9.84 3.648 0.368 0.24 0.688 0.496 1.104 0.864 0.432-0.192 1.296-0.624 2.656-1.488 5.44-3.456 10.448-2.976 13.168-2.048 0.368 0.128 0.752 0.256 1.168 0.368 4.88 0.928 4.832 6.128 4.832 8.592 0 0.688 0 1.856-0.24 1.856 0.672 0.432 2.96 0.864 4.272 1.12 2.16 0.432 3.904 0.736 5.248 1.616 1.184 0.8 4.016 2.032 6.496 2.656 0.064-0.192 0.192-0.304 0.24-0.432 0.752-1.792 1.984-4.448 4.832-5.872 0.864-0.432 1.728-0.624 2.544-0.624l3.088 0.496 1.168 1.92c2.224 3.648 0.064 11.376-0.928 13.168-0.624 1.36-1.104 4.336-0.992 5.808 1.296 0.368 3.888 0.8 6.928 0.8 1.168 0 2.096-0.128 2.784-0.192-0.24-0.496-0.496-0.992-0.736-1.424-1.552-3.024-3.52-6.864-1.92-10.576 1.424-3.28 4.080-3.648 5.136-3.648 3.52 0 6.064 3.28 8.784 6.672l1.424 1.792c0.064 0 1.984 0.24 4.576 0 3.28-0.256 7.488-0.496 12.56 0.368 5.008 0.8 7.664 2.544 9.584 3.776 2.96 1.92 3.648 1.552 7.536 0.368l4.448-1.488c2.72-0.864 3.888-1.296 5.248-1.296 2.544 0 3.888 1.616 4.64 2.544 0.304 0.304 0.624 0.688 1.104 1.168 0.128 0.192 1.92 0.368 4.336 0.128 3.408-0.368 7.296-0.368 10.272 0.752 1.664 0.56 2.528 0.688 2.912 0.688 0.368 0 0.496-0.064 1.664-0.864 0.928-0.624 1.92-1.232 3.28-1.92 1.168-0.624 2.416-0.928 3.776-0.928 5.264 0 9.84 4.768 12.624 7.6l0.736 0.8c0.368 0.24 2.656 0.992 7.616 0.992 1.984 0 3.888-0.128 5.312-0.304 1.792-0.192 3.776-0.864 5.76-1.488 3.216-0.928 6.496-1.984 9.712-1.984 2.656 0 7.792-1.856 10.704-3.216 0.688-0.176 6.304-2.16 10.576-2.16 2.48 0 4.336 0.624 5.632 1.92 1.552 1.552 2.16 3.456 1.856 5.44-0.624 3.52-4.208 6.496-12.176 10.208-2.352 1.056-3.024 2.16-2.96 2.656s0.736 1.168 1.728 1.296c4.64 0.496 6.56 2.656 7.92 4.208 0.688 0.8 1.232 1.488 2.224 2.032 1.92 1.056 3.584 2.784 5.376 4.64 1.36 1.36 4.144 4.144 5.072 4.272 2.224-0.8 4.384-2.224 6.928-3.776 2.096-1.36 4.384-2.784 7.552-3.712-0.064-0.432-0.8-1.488-1.232-2.16-0.624-0.928-1.296-1.92-1.664-2.96-1.552-3.648 0.304-14.528 2.848-18.736-0.432-1.36-2.224-4.208-4.752-5.808-0.128-0.064-11.312-7.424-11.376-13.040 0-1.616 0.736-3.088 2.032-3.952l1.68-0.8h1.232c3.712 0 12.736 3.952 16.448 5.68l1.424 1.056c3.216 3.824 9.28 10.64 11.936 12.544 1.36 0.928 2.544 1.296 3.088 1.36 1.856-5.44 10.384-7.552 17.808-4.88 59.248-71.984 94.928-164.128 94.928-264.448 0-13.296-0.8-26.352-2.032-39.328-1.856 2.832-4.208 3.392-5.696 3.392zM319.056 524.88c4.016 6.304 6.928 1.728 5.76-0.64-1.12-2.288-7.12-1.552-5.76 0.64zM362.784 534.096c2.848 0 8.032-5.744 5.136-9.84-2.848-4.016-6.304-4.576-9.776-1.664-3.472 2.848-0.8 11.504 4.64 11.504zM387.456 515.088c2.912 1.728 10.384 0 12.128 0 1.728 0 6.864 0 9.152-5.744 2.288-5.76-5.136-6.304-7.424-5.76-2.352 0.56-4.64 4.016-7.488 5.2-2.912 1.104-8.464 5.072-6.368 6.304z" />
<glyph unicode="&#xe617;" d="M943.408 845.456h-862.928c-26.704 0-48.48-21.84-48.48-48.48v-517.792c0-26.576 21.776-48.416 48.48-48.416h255.68c-0.064-1.376-0.416-2.576-0.416-3.952 0-97.248 78.896-176.256 176.256-176.256s176.256 78.944 176.256 176.256c0 1.376-0.352 2.576-0.416 3.952h255.68c26.64 0 48.48 21.776 48.48 48.416v517.792c-0.128 26.64-21.904 48.48-48.592 48.48zM354.704 427.84h-48.72l-23.584 184.304-23.152-184.304h-48.656l-38.992 281.664h48.528l17.52-186.512 24.112 186.512h41.76l23.632-185.44 18.304 185.44h48.72l-39.472-281.664zM611.408 146.064h-198.928v37.248h198.928v-37.248zM611.408 208.144h-198.928v37.376h198.928v-37.376zM611.408 270.368h-198.928v37.248h198.928v-37.248zM583.744 427.84h-48.656l-23.632 184.304-23.152-184.304h-48.656l-38.928 281.664h48.528l17.456-186.512 24.112 186.512h41.76l23.632-185.44 18.304 185.44h48.72l-39.488-281.664zM812.864 427.84h-48.72l-23.632 184.304-23.152-184.304h-48.72l-38.88 281.664h48.528l17.52-186.512 24.112 186.512h41.76l23.632-185.44 18.304 185.44h48.72l-39.472-281.664z" />
<glyph unicode="&#xe618;" d="M685.536 407.824h49.344v-49.28h-49.344v49.28zM606.656 407.824h49.344v-49.28h-49.344v49.28zM130.48 88h49.344v-49.424h-49.344v49.424zM843.36 407.824h49.344v-49.28h-49.344v49.28zM606.656 88h49.344v-49.424h-49.344v49.424zM843.36 88h49.344v-49.424h-49.344v49.424zM764.48 88h49.344v-49.424h-49.344v49.424zM685.536 88h49.344v-49.424h-49.344v49.424zM764.48 407.824h49.344v-49.28h-49.344v49.28zM606.656 727.952h49.344v-49.28h-49.344v49.28zM685.536 727.952h49.344v-49.28h-49.344v49.28zM968.432 660.096v215.84c0 28.64-23.424 52.064-52.064 52.064h-808.72c-28.64 0-52.064-23.424-52.064-52.064v-215.84c0-28.64 23.424-52.064 52.064-52.064-28.64 0-52.064-23.424-52.064-52.064v-215.904c0-28.64 23.424-52.064 52.064-52.064-28.64 0-52.064-23.424-52.064-52.064v-215.84c0-28.64 23.424-52.064 52.064-52.064h808.72c28.64 0 52.064 23.424 52.064 52.064v215.84c0 28.64-23.424 52.064-52.064 52.064 28.64 0 52.064 23.424 52.064 52.064v215.888c0 28.64-23.424 52.064-52.064 52.064 28.624 0.016 52.064 23.44 52.064 52.080zM917.232 109.888v-93.264h-812.384v93.264h812.384zM917.232 429.856v-93.264h-812.384v93.264h812.384zM917.232 656.64h-812.384v93.2h812.384c0 0 0-93.2 0-93.2zM130.48 727.952h49.344v-49.28h-49.344v49.28zM130.48 407.824h49.344v-49.28h-49.344v49.28zM764.48 727.952h49.344v-49.28h-49.344v49.28zM843.36 727.952h49.344v-49.28h-49.344v49.28z" />
<glyph unicode="&#xe619;" d="M933.328 291.104l38.88 21.296c12.704 43.024 19.792 88.496 19.792 135.664 0 158.88-77.584 299.28-196.496 386.64l-27.472-40.8-34.672 23.344 27.424 40.688c-72.624 44.144-157.584 70.064-248.784 70.064-195.472 0-363.36-117.056-438.176-284.704l10.448-3.184-12.24-39.904-13.504 4.144c-16.864-49.072-26.528-101.52-26.528-156.288 0-153.712 72.48-290.224 184.864-378.064l-10.016 52.672 41.040 7.856 11.28-58.928-35.28-6.72c80.208-60.576 179.808-96.88 288.112-96.88 16.8 0 33.424 0.896 49.744 2.576l7.68 9.84 9.296-7.264c167.888 23.456 307.984 133.328 373.376 283.616l-18.768 34.336zM587.728 703.904l9.968-40.56-61.808-15.248-10.016 40.56 61.856 15.248zM464.112 673.424l10.016-40.56-61.792-15.232-10.016 40.56 61.792 15.232zM340.528 642.944l10.016-40.56-61.792-15.248-10.016 40.56 61.792 15.248zM205.936 765.696l2.576-59.936-41.696-1.808-2.576 59.936 41.696 1.808zM375.744 192.272l-59.040 10.688 7.44 41.152 59.040-10.672-7.44-41.168zM493.824 170.912l-59.040 10.688 7.44 41.152 59.040-10.672-7.44-41.168zM552.912 160.176l7.44 41.152 59.040-10.736-7.504-41.152-58.976 10.736zM639.2 2.256l-33.056 25.552 36.72 47.456 33.056-25.552-36.72-47.456zM733.696 91.6c-23.104 0-42.416 12.784-53.872 31.024l-0.112 0.112 0.064 0.064c-3.12 4.912-5.52 10.016-7.136 15.776l-1.68 0.304 0.784 4.208c-0.96 4.448-2.704 8.64-2.704 13.376 0 13.136 4.864 24.656 11.584 34.864l-149.52 194.704c-6.416-2.16-13.088-4.144-20.336-4.144-14.816 0-27.776 5.872-38.752 14.272l-205.552-135.904c1.328-5.168 3.184-10.144 3.184-15.712 0-35.824-28.976-64.864-64.8-64.864-35.76 0-64.736 29.040-64.736 64.864 0 35.696 28.976 64.736 64.736 64.736 14.816 0 27.776-5.824 38.704-14.16l205.616 135.952c-1.264 5.168-3.12 10.144-3.12 15.664 0 1.744 0.896 3.248 1.024 4.976l-206.768 89.936c-6.784-7.376-14.944-13.136-24.416-16.736l1.376-39.84-41.696-1.44-1.44 40.384c-26.464 8.096-46.016 31.856-46.016 61.024 0 35.696 28.976 64.736 64.736 64.736 35.824 0 64.8-29.040 64.8-64.736 0-1.744-0.896-3.248-1.024-4.976l206.816-89.936c11.888 12.96 28.496 21.36 47.392 21.36 5.696 0 10.736-1.856 15.968-3.232l106.256 159.232c-8.336 10.976-14.16 23.872-14.16 38.576 0 35.76 29.040 64.736 64.736 64.736 35.824 0 64.864-28.976 64.864-64.736 0-35.824-29.040-64.8-64.864-64.8-5.696 0-10.736 1.856-16.016 3.232l-106.080-159.248c8.288-10.912 14.096-23.824 14.096-38.512 0-13.2-4.912-24.72-11.648-34.976l142.496-185.648 40.976 3.728 1.072-11.696c28.496-6.784 50.096-31.264 50.096-61.744-0.128-35.824-29.104-64.8-64.928-64.8zM177.616 423.648l41.696 1.44 2.16-59.888-41.696-1.504-2.16 59.952zM725.904 468.88l5.344-59.76-41.584-3.712-5.344 59.76 41.584 3.712zM678.912 524.928l-5.408 59.76 41.584 3.728 5.392-59.76-41.568-3.728zM736.64 349.36l5.408-59.76-41.584-3.728-5.392 59.76 41.568 3.728zM848.24 196.72l-20.032 36.544 52.56 28.8 20.032-36.544-52.56-28.8z" />
<glyph unicode="&#xe61a;" d="M984.736 178.16c4.224 6.32 7.264 13.456 7.264 21.6v496.48c0 8.128-3.040 15.296-7.264 21.632l-344.544-269.904 344.544-269.808zM511.984 420.608l456.576 311.792c-5.040 2.336-10.608 3.856-16.528 3.856h-880.080c-5.904 0-11.472-1.52-16.512-3.856l456.544-311.792zM39.264 717.872c-4.224-6.336-7.264-13.504-7.264-21.632v-496.48c0-8.144 3.040-15.28 7.264-21.6l344.544 269.808-344.544 269.904zM604.928 420.448l-86.72-67.968c-1.888-1.408-4.048-2.112-6.224-2.112-2.16 0-4.336 0.704-6.208 2.112l-86.704 67.968-363.984-256.656c5.216-2.464 10.768-4.048 16.864-4.048h880.080c6.096 0 11.664 1.584 16.88 4.048l-363.984 256.656z" />
<glyph unicode="&#xe61b;" d="M513.552 466.16c17.008 0 25.504 13.824 25.504 41.472v121.744c0 27.744-8.512 41.632-25.504 41.632-5.104 0-9.44-1.28-12.992-3.84s-6.16-6.048-7.824-10.496c-1.664-4.432-2.848-8.816-3.52-13.136-0.688-4.336-1.024-9.056-1.024-14.16v-121.76c0.016-27.632 8.464-41.456 25.36-41.456zM943.536 845.472h-863.072c-26.656 0-48.464-21.808-48.464-48.464v-517.84c0-26.656 21.808-48.464 48.464-48.464h255.376c-0.032-1.312-0.096-2.608-0.096-3.92 0-97.328 78.928-176.256 176.256-176.256s176.256 78.928 176.256 176.256c0 1.312-0.064 2.608-0.096 3.92h255.392c26.656 0 48.464 21.808 48.464 48.464v517.84c-0.016 26.656-21.824 48.464-48.48 48.464zM431.232 615.136c0 66.56 27.44 99.84 82.32 99.84 54.992 0 82.48-33.28 82.48-99.84v-93.264c0-11.264-0.832-21.68-2.496-31.216-1.68-9.552-4.512-18.608-8.528-27.152s-9.136-15.84-15.344-21.824c-6.208-6-14.064-10.72-23.552-14.16s-20.352-5.168-32.56-5.168c-12.112 0-22.896 1.696-32.4 5.088-9.488 3.392-17.312 7.984-23.472 13.776s-11.248 12.88-15.264 21.28c-4.016 8.4-6.88 17.344-8.608 26.832s-2.576 19.872-2.576 31.136v94.672zM219.024 427.808h-50.864v49.616h50.864v-49.616zM408.224 596.832h-56.032v25.984c0 5.104-0.112 9.52-0.304 13.216-0.208 3.696-0.752 7.92-1.648 12.672-0.88 4.752-2.096 8.608-3.6 11.584s-3.76 5.504-6.72 7.584c-2.976 2.096-6.544 3.136-10.72 3.136-16.48 0-24.72-13.872-24.72-41.632v-121.6c0-27.648 8.24-41.472 24.72-41.472 4.912 0 9.024 1.408 12.368 4.224s5.744 6.8 7.2 11.968c1.456 5.168 2.448 10.224 2.976 15.184s0.784 10.624 0.784 16.976v28.96h55.712v-23.792c-0.208-10.752-1.088-20.656-2.656-29.744-1.568-9.072-4.224-17.888-7.984-26.448s-8.528-15.776-14.32-21.68c-5.792-5.888-13.28-10.64-22.448-14.24-9.184-3.6-19.728-5.392-31.616-5.392-12.208 0-23.040 1.744-32.464 5.248-9.44 3.488-17.216 8.192-23.328 14.080-6.096 5.888-11.136 13.152-15.104 21.76s-6.752 17.664-8.368 27.152c-1.616 9.488-2.416 19.92-2.416 31.296v93.264c0 66.56 27.232 99.84 81.696 99.84 11.472 0 21.68-1.536 30.592-4.624 8.928-3.072 16.4-7.328 22.448-12.752s11.040-12.112 14.944-20.032c3.92-7.92 6.736-16.528 8.448-25.824 1.728-9.296 2.576-19.504 2.576-30.672l-0.016-24.224zM611.488 145.984h-198.976v37.328h198.976v-37.328zM611.488 208.144h-198.976v37.328h198.976v-37.328zM611.488 270.32h-198.976v37.328h198.976v-37.328zM822.48 427.808h-41.936l-1.248 198.128c-3.136-20.336-8.608-53.36-16.432-99.056s-13.296-78.72-16.432-99.056h-42.576l-34.592 199.376-1.248-199.376h-42.096v281.68h68.224l30.048-187.792 32.4 187.792h65.888v-281.696z" />
<glyph unicode="&#xe61c;" d="M531.264 417.072l-6.784 1.632v-54.608c19.36 4.016 29.92 16.32 29.92 28.992 0 9.216-4.64 19.456-23.136 23.984zM512 640.32c-93.152 0-168.656-86.112-168.656-192.336s75.504-192.352 168.656-192.352c93.136 0 168.608 86.112 168.608 192.336s-75.472 192.352-168.608 192.352zM524.48 324.928v-17.68c0-8.832-7.056-15.936-15.888-15.936-8.784 0-15.92 7.104-15.92 15.936v18.048c-55.936 5.28-81.328 34.592-81.328 57.216 0 12.816 9.536 21.744 22.768 21.744 25.712 0 23.168-31.6 58.56-39.648v61.904l-22.56 5.568c-49.232 12.064-58.112 38.288-58.112 62.928 0 45.856 39.392 65.92 80.672 69.568v17.856c0 8.832 7.136 15.888 15.92 15.888 8.832 0 15.888-7.056 15.888-15.888v-18.464c37.408-5.232 74.48-25.952 74.48-52.368 0-13.088-11.504-20.752-24.736-20.752-20.848 0-21.296 23.472-49.744 31.472v-54.512l21.968-4.768c49.6-10.8 62.128-39.264 62.128-66.16 0.016-38.528-27.856-67.84-84.096-71.952zM464.224 497.856c0-13.424 13.84-19.072 28.448-22.912v49.184c-18.352-2.704-28.448-12.752-28.448-26.272zM893.696 741.44h-763.44c-54.048 0-98.256-44.224-98.256-98.272v-390.384c0-54.048 44.208-98.224 98.256-98.224h763.456c54.064 0 98.304 44.176 98.304 98.224v390.384c-0.016 54.048-44.24 98.272-98.32 98.272zM226.768 223.808c0 69.328-56.176 125.488-125.44 125.488v197.376c69.264 0 125.44 56.144 125.44 125.488h570.416c0-69.328 56.192-125.488 125.488-125.488v-197.392c-69.28 0-125.488-56.144-125.488-125.488h-570.416zM286.608 447.984c0-32.304-26.224-58.528-58.512-58.528-32.304 0-58.512 26.224-58.512 58.528 0 32.256 26.208 58.48 58.512 58.48 32.288 0 58.512-26.224 58.512-58.48zM854.32 447.984c0-32.304-26.176-58.528-58.48-58.528s-58.528 26.224-58.528 58.528c0 32.256 26.224 58.48 58.528 58.48s58.48-26.224 58.48-58.48z" />
<glyph unicode="&#xe61d;" d="M203.136 319.76c9.76 40.912 46.56 71.84 90.256 71.904h185.216v-71.904h66.8v71.904h185.248c43.664-0.064 80.496-30.992 90.128-71.904h67.424c-10.448 78.144-76.64 138.64-157.552 138.704h-185.264v77.424h-66.8v-77.424h-185.2c-80.944-0.064-147.136-60.544-157.584-138.704h67.328zM242.24 283.84h-147.040c-34.816 0-63.2-28.352-63.2-63.072v-138.16c0-34.72 28.384-63.136 63.184-63.136h147.040c34.784 0 63.136 28.416 63.136 63.136v138.16c0 34.72-28.352 63.072-63.12 63.072zM585.52 283.84h-147.104c-34.72 0-63.072-28.352-63.072-63.072v-138.16c0-34.72 28.352-63.136 63.072-63.136h147.104c34.72 0 63.184 28.416 63.184 63.136v138.16c0.016 34.72-28.464 63.072-63.184 63.072zM928.832 283.84h-147.136c-34.72 0-63.136-28.352-63.136-63.072v-138.16c0-34.72 28.416-63.136 63.136-63.136h147.136c34.72 0 63.168 28.416 63.168 63.136v138.16c0 34.72-28.448 63.072-63.168 63.072zM771.008 632.112v181.216c0 34.72-28.448 63.184-63.168 63.184h-391.776c-34.72 0-63.072-28.48-63.072-63.184v-181.232c0-34.72 28.352-63.136 63.072-63.136h391.792c34.72 0.016 63.152 28.432 63.152 63.152z" />
<glyph unicode="&#xe61e;" d="M511.952 880.96c-71.104 0-128.784-57.744-128.784-128.992 0-41.488 20.016-78.144 50.56-101.76 5.264 38.656 38.16 68.736 78.272 68.736 40.096 0 72.992-29.968 78.256-68.736 30.608 23.616 50.608 60.272 50.608 101.76 0 71.264-57.712 128.992-128.912 128.992zM189.616 160.464c-20.112 34.752-10.512 78.256 20.4 102.128-35.728 14.672-77.536 13.728-113.504-7.040-61.68-35.6-82.832-114.48-47.2-176.112 35.52-61.632 114.4-82.672 176.080-47.12 35.968 20.768 57.664 56.48 62.848 94.768-36.176-14.848-78.624-1.328-98.624 33.376zM927.536 255.552c-36.080 20.768-77.824 21.776-113.488 7.040 30.896-23.872 40.496-67.36 20.432-102.128-20.064-34.816-62.576-48.224-98.672-33.44 5.104-38.224 26.816-73.84 62.832-94.704 61.584-35.552 140.512-14.512 176.112 47.12 35.568 61.632 14.32 140.512-47.216 176.112zM469.136 522.8v116.8c0 23.776 19.184 42.864 42.864 42.864 23.664 0 42.832-19.088 42.832-42.864v-116.8c-13.776 3.36-28 5.632-42.88 5.632-14.784-0.016-29.040-2.272-42.816-5.632zM787.216 237.248l-101.6 58.688c-8.288-28.288-22.688-53.792-42.512-74.512l101.28-58.416c20.464-11.824 46.752-4.784 58.528 15.664 11.888 20.496 4.784 46.688-15.696 58.576zM338.416 295.824l-101.568-58.576c-20.528-11.888-27.504-38.064-15.696-58.576 11.888-20.448 38.080-27.504 58.576-15.616l101.12 58.368c-19.776 20.72-34.192 46.224-42.432 74.4zM375.168 346.624c0-75.456 61.312-136.88 136.784-136.88 75.616 0 136.88 61.424 136.88 136.88 0 75.616-61.264 136.88-136.88 136.88-75.472 0.016-136.784-61.248-136.784-136.88z" />
<glyph unicode="&#xe61f;" d="M992 824.24h-960v-159.728h479.824l-479.824-479.808 112.944-112.944 367.056 367.056 367.056-367.056 112.944 112.944-479.824 479.808h479.824z" />
</font>
</defs>
</svg>
